<?xml version="1.0" encoding="utf-8"?>
<!-- Generator: Adobe Illustrator 24.1.2, SVG Export Plug-In . SVG Version: 6.00 Build 0)  -->
<svg version="1.1" id="Layer_1" xmlns="http://www.w3.org/2000/svg" xmlns:xlink="http://www.w3.org/1999/xlink" x="0px" y="0px"
	 viewBox="0 0 44.6 82.4" style="enable-background:new 0 0 44.6 82.4;" xml:space="preserve">
<style type="text/css">
	.st0{fill:#FFFFFF;}
</style>
<g>
	<path class="st0" d="M14.2,35.4c0,1.2-0.9,2.1-2.1,2.1H7.6c0.4,8.1,7.3,14.4,15.4,14c7.6-0.4,13.6-6.4,14-14h-4.5
		c-1.2,0-2.1-0.9-2.1-2.1c0-1.2,0.9-2.1,2.1-2.1H37v-4.4h-4.5c-1.2,0-2.1-0.9-2.1-2.1s0.9-2.1,2.1-2.1H37v-4.4h-4.5
		c-1.2,0-2.1-0.9-2.1-2.1s0.9-2.1,2.1-2.1H37v-1.3C37,6.6,30.4,0,22.3,0S7.6,6.6,7.6,14.7V16h4.5c1.2,0,2.1,0.9,2.1,2.1
		s-0.9,2.1-2.1,2.1l0,0H7.6v4.4h4.5c1.2,0,2.1,0.9,2.1,2.1s-0.9,2.1-2.1,2.1H7.6v4.4h4.5C13.3,33.3,14.2,34.3,14.2,35.4z"/>
	<path class="st0" d="M42.5,24.7c-1.2,0-2.1,0.9-2.1,2.1v8.9c0,10.4-8.1,18.9-18.1,18.9S4.2,46.1,4.2,35.7v-8.9
		c0-1.2-0.9-2.1-2.1-2.1c-1.2,0-2.1,0.9-2.1,2.1v8.9c0,12,8.9,21.9,20.2,23.1v19.4h-7.9c-1.2,0-2.1,0.9-2.1,2.1s0.9,2.1,2.1,2.1h20
		c1.2,0,2.1-0.9,2.1-2.1s-0.9-2.1-2.1-2.1l0,0h-7.9V58.7c11.3-1.1,20.2-11,20.2-23.1v-8.9C44.6,25.6,43.7,24.7,42.5,24.7z"/>
</g>
</svg>
