<svg xmlns="http://www.w3.org/2000/svg" xmlns:xlink="http://www.w3.org/1999/xlink" viewBox="0 0 1500 1500">
  <defs>
    <style>
      .a {
        fill: none;
      }

      .b {
        fill: url(#a);
      }

      .c {
        fill: url(#b);
      }

      .d {
        fill: #9e005d;
      }

      .e {
        fill: url(#c);
      }

      .f {
        clip-path: url(#d);
      }

      .g {
        fill: #ffb300;
      }

      .h {
        fill: #ffb500;
      }

      .i {
        fill: #ffbd00;
      }

      .j {
        fill: #ffc300;
      }

      .k {
        fill: #ffbf00;
      }

      .l {
        fill: #ffc600;
      }

      .m {
        fill: #ffca00;
      }

      .n {
        fill: #ffc800;
      }

      .o {
        fill: #ffd000;
      }

      .p {
        fill: #ffce00;
      }

      .q {
        fill: #ffd400;
      }

      .r {
        fill: #ffa800;
      }

      .s {
        fill: #fb0;
      }

      .t {
        fill: #ffb900;
      }

      .u {
        fill: #ff9a00;
      }

      .v {
        fill: #ff9e00;
      }

      .w {
        fill: #ffd200;
      }

      .x {
        fill: #ff8900;
      }

      .y {
        fill: #ff9400;
      }

      .z {
        fill: #ff9600;
      }

      .aa {
        fill: #ff9c00;
      }

      .ab {
        fill: #ffaf00;
      }

      .ac {
        fill: #ff6100;
      }

      .ad {
        fill: #ff7400;
      }

      .ae {
        fill: #ff7600;
      }

      .af {
        fill: #ff8500;
      }

      .ag {
        fill: #ff8700;
      }

      .ah {
        fill: #ff9100;
      }

      .ai {
        fill: #ffa000;
      }

      .aj {
        fill: #ffa600;
      }

      .ak {
        fill: #ffb100;
      }

      .al {
        fill: #ff4000;
      }

      .am {
        fill: #ff5a00;
      }

      .an {
        fill: #ff5c00;
      }

      .ao {
        fill: #ff6b00;
      }

      .ap {
        fill: #ff8100;
      }

      .aq {
        fill: #ffa400;
      }

      .ar {
        fill: #ff1800;
      }

      .as {
        fill: #f30;
      }

      .at {
        fill: #ff2f00;
      }

      .au, .by {
        fill: #ff5400;
      }

      .av {
        fill: #ff4700;
      }

      .aw {
        fill: #ff6700;
      }

      .ax {
        fill: #ff7000;
      }

      .ay {
        fill: #ff7a00;
      }

      .az {
        fill: #ff8f00;
      }

      .ba {
        fill: #ff8b00;
      }

      .bb {
        fill: #ffab00;
      }

      .bc {
        fill: #ff2300;
      }

      .bd {
        fill: #ff3c00;
      }

      .be {
        fill: #ff6500;
      }

      .bf {
        fill: #ff7c00;
      }

      .bg {
        fill: #ff3a00;
      }

      .bh {
        fill: #ff4b00;
      }

      .bi {
        fill: #ff7200;
      }

      .bj {
        fill: #ff6900;
      }

      .bk {
        fill: #ff4900;
      }

      .bl {
        fill: #ff5000;
      }

      .bm {
        fill: #ff5600;
      }

      .bn {
        fill: #ff5200;
      }

      .bo {
        fill: #ff7f00;
      }

      .bp {
        fill: #ff2a00;
      }

      .bq {
        fill: #ff4500;
      }

      .br {
        fill: #ff3e00;
      }

      .bs {
        fill: #ff5f00;
      }

      .bt {
        fill: #ff2600;
      }

      .bu {
        fill: #ff1d00;
      }

      .bv {
        fill: #ff3500;
      }

      .bw {
        fill: #ec7f1e;
      }

      .bx {
        fill: #fff;
      }

      .by {
        stroke: #f7931e;
        stroke-width: 25.22847px;
      }

      .bz {
        fill: #f1f1f2;
      }
    </style>
    <linearGradient id="a" x1="1288.62728" y1="889.45748" x2="1297.39954" y2="936.60155" gradientTransform="matrix(1, 0, 0, -1, 0, 1622)" gradientUnits="userSpaceOnUse">
      <stop offset="0" stop-color="#1a1a1a"/>
      <stop offset="0.13425" stop-color="#4a311b"/>
      <stop offset="0.28959" stop-color="#7b491c"/>
      <stop offset="0.44397" stop-color="#a45c1d"/>
      <stop offset="0.59437" stop-color="#c36b1d"/>
      <stop offset="0.73958" stop-color="#da761e"/>
      <stop offset="0.87739" stop-color="#e77d1e"/>
      <stop offset="1" stop-color="#ec7f1e"/>
    </linearGradient>
    <linearGradient id="b" x1="1038.31518" y1="894.47731" x2="1047.10647" y2="941.72256" gradientTransform="translate(1252.46582 1627.42118) rotate(180)" xlink:href="#a"/>
    <linearGradient id="c" x1="613.48826" y1="138.11091" x2="624.74706" y2="1511.3713" gradientTransform="matrix(1, 0, 0, -1, 127.96588, 1627.42118)" gradientUnits="userSpaceOnUse">
      <stop offset="0" stop-color="#f7931e"/>
      <stop offset="1" stop-color="#f7931e"/>
    </linearGradient>
    <clipPath id="d">
      <path class="a" d="M1250.04629,1153.68259l-499.17214,265.034L256.12571,1143.15866c98.50824-442.97594-15.6059-779.857-15.6059-779.857L750.87415,106.65589,1261.282,363.30162C1134.1574,933.51,1250.04629,1153.68259,1250.04629,1153.68259Z"/>
    </clipPath>
  </defs>
  <g>
    <polygon class="b" points="1353.681 708.247 1258.799 637.375 1229.792 723.42 1353.681 708.247"/>
    <polygon class="c" points="146.769 708.247 245.102 637.375 275.164 723.42 146.769 708.247"/>
    <g>
      <path class="d" d="M749.97512,106.658,239.6213,363.30327S353.73522,700.17964,255.22865,1143.157l494.74647,275.56224L1249.1488,1153.6805S1133.25649,933.513,1260.37862,363.30333Z"/>
      <path class="e" d="M749.97517,106.65805l510.40356,256.64522c-127.12224,570.20977-11.22993,790.37712-11.22993,790.37712L749.97517,1418.71925,255.22868,1143.1569c98.50651-442.97742-15.60742-779.85368-15.60742-779.85368L749.97523,106.658m-.001-50.426-20.2389,10.1778L219.3813,323.055,184.301,340.696l12.64588,37.04662c.70109,2.10731,27.80182,84.442,42.99969,217.44767,14.08842,123.29715,20.54648,316.75351-28.69454,538.18742l-7.29185,32.79121,29.34714,16.34589,494.74649,275.56234L749.46037,1470l21.6414-11.49082,499.17363-265.03887,40.35-21.42389-21.51937-39.18291c-.82215-1.69138-7.14566-15.07157-14.63085-41.24759-7.39633-25.86574-17.4626-69.83639-23.41379-132.42286-10.55374-110.98763-9.87555-302.7619,53.28857-586.08688l7.6417-34.27593L1280.617,323.05434,770.21346,66.409,749.97418,56.232Z"/>
    </g>
    <g class="f">
      <g>
        <polygon class="g" points="57.863 10.55 31.02 57.038 146.466 57.038 119.62 10.55 57.863 10.55"/>
        <polygon class="g" points="173.309 10.55 146.466 57.038 261.913 57.038 235.066 10.55 173.309 10.55"/>
        <polygon class="h" points="119.62 10.55 146.466 57.038 173.309 10.55 119.62 10.55"/>
        <polygon class="i" points="288.755 10.55 261.913 57.038 377.358 57.038 350.513 10.55 288.755 10.55"/>
        <polygon class="h" points="235.066 10.55 261.913 57.038 288.755 10.55 235.066 10.55"/>
        <polygon class="j" points="404.202 10.55 377.358 57.038 492.805 57.038 465.959 10.55 404.202 10.55"/>
        <polygon class="k" points="350.513 10.55 377.358 57.038 404.202 10.55 350.513 10.55"/>
        <polygon class="l" points="519.647 10.55 492.805 57.038 608.251 57.038 581.405 10.55 519.647 10.55"/>
        <polygon class="l" points="465.959 10.55 492.805 57.038 519.647 10.55 465.959 10.55"/>
        <polygon class="k" points="635.093 10.55 608.251 57.038 723.697 57.038 696.851 10.55 635.093 10.55"/>
        <polygon class="l" points="581.405 10.55 608.251 57.038 635.093 10.55 581.405 10.55"/>
        <polygon class="m" points="750.54 10.55 723.697 57.038 839.143 57.038 812.297 10.55 750.54 10.55"/>
        <polygon class="n" points="696.851 10.55 723.697 57.038 750.54 10.55 696.851 10.55"/>
        <polygon class="m" points="865.987 10.55 839.143 57.038 954.589 57.038 927.743 10.55 865.987 10.55"/>
        <polygon class="n" points="812.297 10.55 839.143 57.038 865.987 10.55 812.297 10.55"/>
        <polygon class="o" points="981.433 10.55 954.589 57.038 1070.036 57.038 1043.19 10.55 981.433 10.55"/>
        <polygon class="p" points="927.743 10.55 954.589 57.038 981.433 10.55 927.743 10.55"/>
        <polygon class="q" points="1096.879 10.55 1070.036 57.038 1185.482 57.038 1158.636 10.55 1096.879 10.55"/>
        <polygon class="q" points="1043.19 10.55 1070.036 57.038 1096.879 10.55 1043.19 10.55"/>
        <polygon class="p" points="1212.325 10.55 1185.482 57.038 1300.929 57.038 1274.083 10.55 1212.325 10.55"/>
        <polygon class="o" points="1158.636 10.55 1185.482 57.038 1212.325 10.55 1158.636 10.55"/>
        <polygon class="m" points="1327.771 10.55 1300.929 57.038 1416.374 57.038 1389.528 10.55 1327.771 10.55"/>
        <polygon class="o" points="1274.083 10.55 1300.929 57.038 1327.771 10.55 1274.083 10.55"/>
        <path class="r" d="M146.46594,57.04855,88.7426,157.04346H204.18854L146.46594,57.03815Z"/>
        <path class="r" d="M146.46594,57.04855,88.7426,157.04346,31.01926,57.03815H146.46594Z"/>
        <path class="h" d="M261.91194,57.04855l-57.7234,99.99491H319.63523L261.91194,57.03815Z"/>
        <path class="g" d="M261.91194,57.04855l-57.7234,99.99491L146.46594,57.03815h115.446Z"/>
        <path class="s" d="M377.35782,57.04855l-57.72259,99.99491H435.08116L377.35782,57.03815Z"/>
        <path class="t" d="M377.35782,57.04855l-57.72259,99.99491L261.91194,57.03815H377.35787Z"/>
        <path class="j" d="M492.80451,57.04855l-57.72335,99.99491H550.52711L492.80451,57.03815Z"/>
        <path class="k" d="M492.80451,57.04855l-57.72335,99.99491L377.35782,57.03815H492.80451Z"/>
        <path class="j" d="M608.25045,57.04855l-57.72334,99.99491H665.97377L608.25045,57.03815Z"/>
        <path class="l" d="M608.25045,57.04855l-57.72334,99.99491L492.80451,57.03815H608.25045Z"/>
        <path class="k" d="M723.69637,57.04855l-57.7226,99.99491h115.446L723.69637,57.03815Z"/>
        <path class="k" d="M723.69637,57.04855l-57.7226,99.99491L608.25045,57.03815H723.69637Z"/>
        <path class="j" d="M839.14306,57.04855l-57.72331,99.99491h115.446L839.14306,57.03815Z"/>
        <path class="n" d="M839.14306,57.04855l-57.72331,99.99491L723.69637,57.03815H839.14306Z"/>
        <path class="n" d="M954.589,57.04855l-57.72332,99.99491h115.44664L954.589,57.03815Z"/>
        <path class="n" d="M954.589,57.04855l-57.72332,99.99491L839.14306,57.03815H954.589Z"/>
        <path class="p" d="M1070.035,57.04855l-57.7226,99.99491h115.446L1070.035,57.03815Z"/>
        <path class="p" d="M1070.035,57.04855l-57.7226,99.99491L954.589,57.03815H1070.035Z"/>
        <path class="n" d="M1185.48159,57.04855l-57.72337,99.99491h115.44664L1185.48159,57.03815Z"/>
        <path class="p" d="M1185.48159,57.04855l-57.72337,99.99491L1070.035,57.03815h115.44663Z"/>
        <path class="n" d="M1300.92768,57.04855l-57.7226,99.99491h115.446L1300.92768,57.03815Z"/>
        <path class="m" d="M1300.92768,57.04855l-57.7226,99.99491L1185.48159,57.03815h115.44609Z"/>
        <polygon class="m" points="1445.585 107.646 1416.374 57.038 1416.374 57.049 1358.65 157.043 1445.585 157.043 1445.585 107.646"/>
        <path class="p" d="M1416.37431,57.04855l-57.72337,99.99491L1300.92768,57.03815h115.44663Z"/>
        <path class="u" d="M88.7426,157.02784,31.01926,257.00047H146.46594l-57.72334-99.957Z"/>
        <path class="v" d="M204.18854,157.02784l-57.7226,99.97263h115.446l-57.72335-99.957Z"/>
        <path class="v" d="M204.18854,157.02784l-57.7226,99.97263-57.72334-99.957H204.18854Z"/>
        <path class="r" d="M319.63523,157.02784l-57.72329,99.97263H377.35787l-57.7226-99.957Z"/>
        <path class="r" d="M319.63523,157.02784l-57.72329,99.97263-57.72335-99.957H319.63523Z"/>
        <path class="h" d="M435.08116,157.02784l-57.72334,99.97263H492.80451l-57.72335-99.957Z"/>
        <path class="h" d="M435.08116,157.02784l-57.72334,99.97263-57.72261-99.957h115.446Z"/>
        <path class="k" d="M550.52711,157.02784l-57.7226,99.97263H608.25045l-57.72334-99.957Z"/>
        <path class="k" d="M550.52711,157.02784l-57.7226,99.97263-57.72335-99.957H550.52711Z"/>
        <path class="s" d="M665.97377,157.02784l-57.72332,99.97263H723.69637l-57.7226-99.957Z"/>
        <path class="i" d="M665.97377,157.02784l-57.72332,99.97263-57.72334-99.957H665.97377Z"/>
        <path class="i" d="M781.41975,157.02784l-57.72338,99.97263H839.14306l-57.72331-99.957Z"/>
        <path class="k" d="M781.41975,157.02784l-57.72338,99.97263-57.7226-99.957h115.446Z"/>
        <path class="s" d="M896.86572,157.02784l-57.72266,99.97263H954.589l-57.72326-99.957Z"/>
        <path class="k" d="M896.86572,157.02784l-57.72266,99.97263-57.72331-99.957h115.446Z"/>
        <path class="k" d="M1012.31236,157.02784,954.589,257.00047H1070.035l-57.7226-99.957Z"/>
        <path class="j" d="M1012.31236,157.02784,954.589,257.00047l-57.72332-99.957h115.44664Z"/>
        <path class="i" d="M1127.75833,157.02784,1070.035,257.00047h115.44663l-57.72337-99.957Z"/>
        <path class="j" d="M1127.75833,157.02784,1070.035,257.00047l-57.7226-99.957h115.446Z"/>
        <path class="l" d="M1243.205,157.02784l-57.72338,99.97263h115.44609l-57.7226-99.957Z"/>
        <path class="k" d="M1243.205,157.02784l-57.72338,99.97263-57.72337-99.957h115.44664Z"/>
        <path class="n" d="M1358.65094,157.02784l-57.72326,99.97263h115.44663l-57.72337-99.957Z"/>
        <path class="j" d="M1358.65094,157.02784l-57.72326,99.97263-57.7226-99.957h115.446Z"/>
        <polygon class="w" points="1445.585 157.043 1358.65 157.043 1416.374 257 1445.585 206.409 1445.585 157.043"/>
        <path class="x" d="M146.46594,257.00715,88.7426,357.0057H204.18854l-57.7226-100.00523Z"/>
        <path class="x" d="M146.46594,257.00715,88.7426,357.0057,31.01926,257.00047H146.46594Z"/>
        <path class="y" d="M261.91194,257.00715l-57.7234,99.99855H319.63523L261.91194,257.00047Z"/>
        <path class="z" d="M261.91194,257.00715l-57.7234,99.99855-57.7226-100.00523h115.446Z"/>
        <path class="z" d="M377.35782,257.00715,319.63523,357.0057H435.08116L377.35782,257.00047Z"/>
        <path class="aa" d="M377.35782,257.00715,319.63523,357.0057,261.91194,257.00047H377.35787Z"/>
        <path class="ab" d="M492.80451,257.00715,435.08116,357.0057H550.52711l-57.7226-100.00523Z"/>
        <path class="r" d="M492.80451,257.00715,435.08116,357.0057,377.35782,257.00047H492.80451Z"/>
        <path class="t" d="M608.25045,257.00715,550.52711,357.0057H665.97377L608.25045,257.00047Z"/>
        <path class="s" d="M608.25045,257.00715,550.52711,357.0057l-57.7226-100.00523H608.25045Z"/>
        <path class="g" d="M723.69637,257.00715l-57.7226,99.99855h115.446L723.69637,257.00047Z"/>
        <path class="h" d="M723.69637,257.00715l-57.7226,99.99855L608.25045,257.00047H723.69637Z"/>
        <path class="g" d="M839.14306,257.00715,781.41975,357.0057h115.446L839.14306,257.00047Z"/>
        <path class="t" d="M839.14306,257.00715,781.41975,357.0057,723.69637,257.00047H839.14306Z"/>
        <path class="h" d="M954.589,257.00715,896.86572,357.0057h115.44664L954.589,257.00047Z"/>
        <path class="h" d="M954.589,257.00715,896.86572,357.0057,839.14306,257.00047H954.589Z"/>
        <path class="t" d="M1070.035,257.00715l-57.7226,99.99855h115.446L1070.035,257.00047Z"/>
        <path class="k" d="M1070.035,257.00715l-57.7226,99.99855L954.589,257.00047H1070.035Z"/>
        <path class="k" d="M1185.48159,257.00715l-57.72337,99.99855h115.44664l-57.72327-100.00523Z"/>
        <path class="s" d="M1185.48159,257.00715l-57.72337,99.99855L1070.035,257.00047h115.44663Z"/>
        <path class="k" d="M1300.92768,257.00715l-57.7226,99.99855h115.446l-57.72337-100.00523Z"/>
        <path class="k" d="M1300.92768,257.00715l-57.7226,99.99855-57.72349-100.00523h115.44609Z"/>
        <polygon class="k" points="1445.585 307.609 1416.374 257 1416.374 257.008 1358.65 357.006 1445.585 357.006 1445.585 307.609"/>
        <path class="j" d="M1416.37431,257.00715l-57.72337,99.99855-57.72326-100.00523h115.44663Z"/>
        <path class="ac" d="M88.7426,356.98645,31.01926,456.96278H146.46594L88.7426,357.0057Z"/>
        <path class="ad" d="M204.18854,356.98645l-57.7226,99.97633h115.446l-57.7234-99.95708Z"/>
        <path class="ae" d="M204.18854,356.98645l-57.7226,99.97633L88.7426,357.0057H204.18854Z"/>
        <path class="af" d="M319.63523,356.98645l-57.72329,99.97633H377.35787L319.63523,357.0057Z"/>
        <path class="ag" d="M319.63523,356.98645l-57.72329,99.97633-57.7234-99.95708H319.63523Z"/>
        <path class="y" d="M435.08116,356.98645l-57.72334,99.97633H492.80451L435.08116,357.0057Z"/>
        <path class="ah" d="M435.08116,356.98645l-57.72334,99.97633L319.63523,357.0057H435.08116Z"/>
        <path class="aa" d="M550.52711,356.98645l-57.7226,99.97633H608.25045L550.52711,357.0057Z"/>
        <path class="ai" d="M550.52711,356.98645l-57.7226,99.97633L435.08116,357.0057H550.52711Z"/>
        <path class="aj" d="M665.97377,356.98645l-57.72332,99.97633H723.69637l-57.7226-99.95708Z"/>
        <path class="aj" d="M665.97377,356.98645l-57.72332,99.97633L550.52711,357.0057H665.97377Z"/>
        <path class="ak" d="M781.41975,356.98645l-57.72338,99.97633H839.14306L781.41975,357.0057Z"/>
        <path class="ab" d="M781.41975,356.98645l-57.72338,99.97633-57.7226-99.95708h115.446Z"/>
        <path class="aj" d="M896.86572,356.98645l-57.72266,99.97633H954.589L896.86572,357.0057Z"/>
        <path class="ak" d="M896.86572,356.98645l-57.72266,99.97633L781.41975,357.0057h115.446Z"/>
        <path class="ab" d="M1012.31236,356.98645,954.589,456.96278H1070.035l-57.7226-99.95708Z"/>
        <path class="ab" d="M1012.31236,356.98645,954.589,456.96278,896.86572,357.0057h115.44664Z"/>
        <path class="g" d="M1127.75833,356.98645,1070.035,456.96278h115.44663l-57.72337-99.95708Z"/>
        <path class="g" d="M1127.75833,356.98645,1070.035,456.96278l-57.7226-99.95708h115.446Z"/>
        <path class="t" d="M1243.205,356.98645l-57.72338,99.97633h115.44609l-57.7226-99.95708Z"/>
        <path class="j" d="M1243.205,356.98645l-57.72338,99.97633-57.72337-99.95708h115.44664Z"/>
        <path class="s" d="M1358.65094,356.98645l-57.72326,99.97633h115.44663l-57.72337-99.95708Z"/>
        <path class="j" d="M1358.65094,356.98645l-57.72326,99.97633-57.7226-99.95708h115.446Z"/>
        <polygon class="t" points="1445.585 357.006 1358.65 357.006 1416.374 456.964 1445.585 406.37 1445.585 357.006"/>
        <path class="al" d="M146.46594,456.96575,88.7426,556.96806H204.18854l-57.7226-100.00528Z"/>
        <path class="al" d="M146.46594,456.96575,88.7426,556.96806,31.01926,456.96278H146.46594Z"/>
        <path class="am" d="M261.91194,456.96575l-57.7234,100.00231H319.63523L261.91194,456.96278Z"/>
        <path class="an" d="M261.91194,456.96575l-57.7234,100.00231-57.7226-100.00528h115.446Z"/>
        <path class="ae" d="M377.35782,456.96575,319.63523,556.96806H435.08116L377.35782,456.96278Z"/>
        <path class="ao" d="M377.35782,456.96575,319.63523,556.96806,261.91194,456.96278H377.35787Z"/>
        <path class="ap" d="M492.80451,456.96575,435.08116,556.96806H550.52711l-57.7226-100.00528Z"/>
        <path class="ap" d="M492.80451,456.96575,435.08116,556.96806,377.35782,456.96278H492.80451Z"/>
        <path class="z" d="M608.25045,456.96575,550.52711,556.96806H665.97377L608.25045,456.96278Z"/>
        <path class="z" d="M608.25045,456.96575,550.52711,556.96806l-57.7226-100.00528H608.25045Z"/>
        <path class="ah" d="M723.69637,456.96575l-57.7226,100.00231h115.446L723.69637,456.96278Z"/>
        <path class="aa" d="M723.69637,456.96575l-57.7226,100.00231L608.25045,456.96278H723.69637Z"/>
        <path class="ai" d="M839.14306,456.96575,781.41975,556.96806h115.446L839.14306,456.96278Z"/>
        <path class="ai" d="M839.14306,456.96575,781.41975,556.96806,723.69637,456.96278H839.14306Z"/>
        <path class="aa" d="M954.589,456.96575,896.86572,556.96806h115.44664L954.589,456.96278Z"/>
        <path class="aq" d="M954.589,456.96575,896.86572,556.96806,839.14306,456.96278H954.589Z"/>
        <path class="r" d="M1070.035,456.96575l-57.7226,100.00231h115.446L1070.035,456.96278Z"/>
        <path class="r" d="M1070.035,456.96575l-57.7226,100.00231L954.589,456.96278H1070.035Z"/>
        <path class="ak" d="M1185.48159,456.96575l-57.72337,100.00236h115.44664l-57.72327-100.00533Z"/>
        <path class="h" d="M1185.48159,456.96575l-57.72337,100.00236L1070.035,456.96278h115.44663Z"/>
        <path class="g" d="M1300.92768,456.96575l-57.7226,100.00236h115.446l-57.72337-100.00533Z"/>
        <path class="i" d="M1300.92768,456.96575l-57.7226,100.00236-57.72349-100.00533h115.44609Z"/>
        <polygon class="ab" points="1445.585 507.57 1416.374 456.964 1416.374 456.965 1358.65 556.968 1445.585 556.968 1445.585 507.57"/>
        <path class="g" d="M1416.37431,456.96575l-57.72337,100.00236-57.72326-100.00533h115.44663Z"/>
        <path class="ar" d="M88.7426,556.94579l-57.72334,99.98H146.46594L88.7426,556.96806Z"/>
        <path class="as" d="M204.18854,556.94579l-57.7226,99.98h115.446l-57.7234-99.95777Z"/>
        <path class="at" d="M204.18854,556.94579l-57.7226,99.98L88.7426,556.96806H204.18854Z"/>
        <path class="au" d="M319.63523,556.94579l-57.72329,99.98H377.35787l-57.72264-99.95777Z"/>
        <path class="av" d="M319.63523,556.94579l-57.72329,99.98-57.7234-99.95777H319.63523Z"/>
        <path class="aw" d="M435.08116,556.94579l-57.72334,99.98H492.80451l-57.72335-99.95777Z"/>
        <path class="au" d="M435.08116,556.94579l-57.72334,99.98-57.72259-99.95777H435.08116Z"/>
        <path class="ad" d="M550.52711,556.94579l-57.7226,99.98H608.25045l-57.72334-99.95777Z"/>
        <path class="ax" d="M550.52711,556.94579l-57.7226,99.98-57.72335-99.95777H550.52711Z"/>
        <path class="ap" d="M665.97377,556.94579l-57.72332,99.98H723.69637l-57.7226-99.95777Z"/>
        <path class="ay" d="M665.97377,556.94579l-57.72332,99.98-57.72334-99.95777H665.97377Z"/>
        <path class="az" d="M781.41975,556.94579l-57.72338,99.98H839.14306l-57.72331-99.95777Z"/>
        <path class="ba" d="M781.41975,556.94579l-57.72338,99.98-57.7226-99.95777h115.446Z"/>
        <path class="az" d="M896.86572,556.94579l-57.72266,99.98H954.589l-57.72326-99.95777Z"/>
        <path class="z" d="M896.86572,556.94579l-57.72266,99.98-57.72331-99.95777h115.446Z"/>
        <path class="y" d="M1012.31236,556.94579l-57.72332,99.98H1070.035l-57.7226-99.95777Z"/>
        <path class="y" d="M1012.31236,556.94579l-57.72332,99.98-57.72332-99.95777h115.44664Z"/>
        <path class="aj" d="M1127.75833,556.94579l-57.72337,99.98h115.44663l-57.72337-99.95772Z"/>
        <path class="aq" d="M1127.75833,556.94579l-57.72337,99.98-57.7226-99.95777h115.446Z"/>
        <path class="bb" d="M1243.205,556.94579l-57.72338,99.98h115.44609l-57.7226-99.95772Z"/>
        <path class="ak" d="M1243.205,556.94579l-57.72338,99.98-57.72337-99.95772h115.44664Z"/>
        <path class="aj" d="M1358.65094,556.94579l-57.72326,99.98h115.44663l-57.72337-99.95772Z"/>
        <path class="ak" d="M1358.65094,556.94579l-57.72326,99.98-57.7226-99.95772h115.446Z"/>
        <polygon class="aq" points="1445.585 556.968 1358.65 556.968 1416.374 656.926 1445.585 606.331 1445.585 556.968"/>
        <path class="at" d="M146.46594,656.92506,88.7426,756.88277H204.18854l-57.7226-99.95694Z"/>
        <path class="bc" d="M146.46594,656.92506,88.7426,756.88277,31.01926,656.92583H146.46594Z"/>
        <path class="av" d="M261.91194,656.92506l-57.7234,99.95771H319.63523l-57.72329-99.95694Z"/>
        <path class="bd" d="M261.91194,656.92506l-57.7234,99.95771-57.7226-99.95694h115.446Z"/>
        <path class="be" d="M377.35782,656.92506l-57.72259,99.95771H435.08116l-57.72334-99.95694Z"/>
        <path class="au" d="M377.35782,656.92506l-57.72259,99.95771-57.72329-99.95694H377.35787Z"/>
        <path class="ax" d="M492.80451,656.92506l-57.72335,99.95771H550.52711l-57.7226-99.95694Z"/>
        <path class="aw" d="M492.80451,656.92506l-57.72335,99.95771-57.72334-99.95694H492.80451Z"/>
        <path class="ad" d="M608.25045,656.92506l-57.72334,99.95771H665.97377l-57.72332-99.95694Z"/>
        <path class="ad" d="M608.25045,656.92506l-57.72334,99.95771-57.7226-99.95694H608.25045Z"/>
        <path class="ay" d="M723.69637,656.92506l-57.7226,99.95771h115.446l-57.72338-99.95694Z"/>
        <path class="bf" d="M723.69637,656.92506l-57.7226,99.95771-57.72332-99.95694H723.69637Z"/>
        <path class="ap" d="M839.14306,656.92506l-57.72331,99.95771h115.446l-57.72266-99.95694Z"/>
        <path class="ad" d="M839.14306,656.92506l-57.72331,99.95771-57.72338-99.95694H839.14306Z"/>
        <path class="ag" d="M954.589,656.92506l-57.72332,99.95771h115.44664L954.589,656.92583Z"/>
        <path class="bf" d="M954.589,656.92506l-57.72332,99.95771-57.72266-99.95694H954.589Z"/>
        <path class="u" d="M1070.035,656.92506l-57.7226,99.95771h115.446L1070.035,656.92583Z"/>
        <path class="y" d="M1070.035,656.92506l-57.7226,99.95771L954.589,656.92583H1070.035Z"/>
        <path class="r" d="M1185.48159,656.92506l-57.72337,99.95766h115.44664l-57.72338-99.95695Z"/>
        <path class="aq" d="M1185.48159,656.92506l-57.72337,99.95766-57.72337-99.95695h115.44663Z"/>
        <path class="ai" d="M1300.92768,656.92506l-57.7226,99.95766h115.446l-57.72337-99.95689Z"/>
        <path class="r" d="M1300.92768,656.92506l-57.7226,99.95766-57.72338-99.95695h115.446Z"/>
        <polygon class="r" points="1445.585 707.51 1416.374 656.926 1416.374 656.925 1358.65 756.883 1445.585 756.883 1445.585 707.51"/>
        <path class="ai" d="M1416.37431,656.92506l-57.72337,99.95766-57.72326-99.95689h115.44663Z"/>
        <path class="at" d="M88.7426,756.90438,31.01926,856.88816H146.46594L88.7426,756.88277Z"/>
        <path class="av" d="M204.18854,756.90438l-57.7226,99.98378h115.446l-57.7234-100.00539Z"/>
        <path class="bg" d="M204.18854,756.90438l-57.7226,99.98378L88.7426,756.88277H204.18854Z"/>
        <path class="am" d="M319.63523,756.90438l-57.72329,99.98378H377.35787l-57.7226-100.00539Z"/>
        <path class="bh" d="M319.63523,756.90438l-57.72329,99.98378-57.7234-100.00539H319.63523Z"/>
        <path class="bi" d="M435.08116,756.90438l-57.72334,99.98378H492.80451L435.08116,756.88277Z"/>
        <path class="aw" d="M435.08116,756.90438l-57.72334,99.98378L319.63521,756.88277h115.446Z"/>
        <path class="bi" d="M550.52711,756.90438l-57.7226,99.98378H608.25045L550.52711,756.88277Z"/>
        <path class="ae" d="M550.52711,756.90438l-57.7226,99.98378L435.08116,756.88277H550.52711Z"/>
        <path class="ax" d="M665.97377,756.90438l-57.72332,99.98378H723.69637l-57.7226-100.00539Z"/>
        <path class="ae" d="M665.97377,756.90438l-57.72332,99.98378L550.52711,756.88277H665.97377Z"/>
        <path class="ax" d="M781.41975,756.90438l-57.72338,99.98378H839.14306L781.41975,756.88277Z"/>
        <path class="bf" d="M781.41975,756.90438l-57.72338,99.98378-57.7226-100.00539h115.446Z"/>
        <path class="bj" d="M896.86572,756.90438l-57.72266,99.98378H954.589L896.86572,756.88277Z"/>
        <path class="bi" d="M896.86572,756.90438l-57.72266,99.98378L781.41975,756.88277h115.446Z"/>
        <path class="af" d="M1012.31236,756.90438,954.589,856.88816H1070.035l-57.7226-100.00539Z"/>
        <path class="bf" d="M1012.31236,756.90438,954.589,856.88816,896.86572,756.88277h115.44664Z"/>
        <path class="u" d="M1127.75833,756.90438,1070.035,856.88816h115.44663l-57.72337-100.00539Z"/>
        <path class="ah" d="M1127.75833,756.90438,1070.035,856.88816l-57.7226-100.00539h115.446Z"/>
        <path class="az" d="M1243.205,756.90438l-57.72338,99.98378h115.44609l-57.7226-100.00539Z"/>
        <path class="v" d="M1243.205,756.90438l-57.72338,99.98378-57.72337-100.00539h115.44664Z"/>
        <path class="ai" d="M1358.65094,756.90438l-57.72326,99.98378h115.44663l-57.72337-100.00539Z"/>
        <path class="aa" d="M1358.65094,756.90438l-57.72326,99.98378-57.7226-100.00539h115.446Z"/>
        <polygon class="bb" points="1445.585 756.883 1358.65 756.883 1416.374 856.888 1445.585 806.292 1445.585 756.883"/>
        <path class="av" d="M146.46594,856.8836,88.7426,956.84516H204.18854l-57.7226-99.957Z"/>
        <path class="bg" d="M146.46594,856.8836,88.7426,956.84516l-57.72334-99.957H146.46594Z"/>
        <path class="bk" d="M261.91194,856.8836l-57.72335,99.96156H319.63523l-57.72329-99.957Z"/>
        <path class="bl" d="M261.91194,856.8836l-57.72335,99.96156-57.72265-99.957h115.446Z"/>
        <path class="bm" d="M377.35782,856.8836l-57.72261,99.96156h115.446l-57.72334-99.957Z"/>
        <path class="an" d="M377.35782,856.8836l-57.72261,99.96156-57.72327-99.957H377.35787Z"/>
        <path class="be" d="M492.80451,856.8836l-57.72335,99.96156H550.52711l-57.7226-99.957Z"/>
        <path class="bj" d="M492.80451,856.8836l-57.72335,99.96156-57.72334-99.957H492.80451Z"/>
        <path class="aw" d="M608.25045,856.8836l-57.72334,99.96156H665.97377l-57.72332-99.957Z"/>
        <path class="be" d="M608.25045,856.8836l-57.72334,99.96156-57.7226-99.957H608.25045Z"/>
        <path class="bi" d="M723.69637,856.8836l-57.7226,99.96156h115.446l-57.72338-99.957Z"/>
        <path class="bj" d="M723.69637,856.8836l-57.7226,99.96156-57.72332-99.957H723.69637Z"/>
        <path class="ay" d="M839.14306,856.8836l-57.72331,99.96156h115.446l-57.7226-99.957Z"/>
        <path class="ax" d="M839.14306,856.8836l-57.72331,99.96156-57.72338-99.957H839.14306Z"/>
        <path class="af" d="M954.589,856.8836l-57.72332,99.96156h115.44664l-57.72338-99.957Z"/>
        <path class="ae" d="M954.589,856.8836l-57.72332,99.96156-57.7226-99.957H954.589Z"/>
        <path class="x" d="M1070.035,856.8836l-57.7226,99.96156h115.446l-57.72337-99.957Z"/>
        <path class="af" d="M1070.035,856.8836l-57.7226,99.96156-57.72338-99.957h115.446Z"/>
        <path class="af" d="M1185.48159,856.8836l-57.72337,99.96156h115.44664l-57.72338-99.957Z"/>
        <path class="ba" d="M1185.48159,856.8836l-57.72337,99.96156-57.72337-99.957h115.44663Z"/>
        <path class="y" d="M1300.92768,856.8836l-57.7226,99.96156h115.446l-57.72337-99.957Z"/>
        <path class="ag" d="M1300.92768,856.8836l-57.7226,99.96156-57.72338-99.957h115.446Z"/>
        <polygon class="v" points="1445.585 907.472 1416.374 856.888 1416.374 856.883 1358.65 956.845 1445.585 956.845 1445.585 907.472"/>
        <path class="ai" d="M1416.37431,856.8836l-57.72337,99.96156-57.72337-99.957H1416.3742Z"/>
        <path class="av" d="M88.7426,956.863l-57.72334,99.98746H146.46594L88.7426,956.84516Z"/>
        <path class="bh" d="M204.18854,956.863l-57.7226,99.98746h115.446l-57.7234-100.00528Z"/>
        <path class="av" d="M204.18854,956.863l-57.7226,99.98746L88.7426,956.84516H204.18854Z"/>
        <path class="bn" d="M319.63523,956.863l-57.72329,99.98746H377.35787l-57.7226-100.00528Z"/>
        <path class="bh" d="M319.63523,956.863l-57.72329,99.98746-57.7234-100.00528H319.63523Z"/>
        <path class="an" d="M435.08116,956.863l-57.72334,99.98746H492.80451L435.08116,956.84516Z"/>
        <path class="am" d="M435.08116,956.863l-57.72334,99.98746L319.63521,956.84516h115.446Z"/>
        <path class="aw" d="M550.52711,956.863l-57.7226,99.98746H608.25045L550.52711,956.84516Z"/>
        <path class="ac" d="M550.52711,956.863l-57.7226,99.98746L435.08116,956.84516H550.52711Z"/>
        <path class="bj" d="M665.97377,956.863l-57.72332,99.98746H723.69637l-57.7226-100.00528Z"/>
        <path class="bj" d="M665.97377,956.863l-57.72332,99.98746L550.52711,956.84516H665.97377Z"/>
        <path class="ap" d="M781.41975,956.863l-57.72338,99.98746H839.14306L781.41975,956.84516Z"/>
        <path class="ad" d="M781.41975,956.863l-57.72338,99.98746-57.7226-100.00528h115.446Z"/>
        <path class="ae" d="M896.86572,956.863l-57.7226,99.98746H954.589L896.86572,956.84516Z"/>
        <path class="bf" d="M896.86572,956.863l-57.7226,99.98746L781.4198,956.84516H896.86572Z"/>
        <path class="bf" d="M1012.31236,956.863,954.589,1056.85044h115.446l-57.7226-100.00528Z"/>
        <path class="ay" d="M1012.31236,956.863,954.589,1056.85044,896.86572,956.84516h115.44664Z"/>
        <path class="x" d="M1127.75833,956.863l-57.72337,99.98746h115.44663l-57.72337-100.00528Z"/>
        <path class="ag" d="M1127.75833,956.863l-57.72337,99.98746-57.7226-100.00528h115.446Z"/>
        <path class="af" d="M1243.205,956.863l-57.72338,99.98746h115.44609l-57.7226-100.00528Z"/>
        <path class="ag" d="M1243.205,956.863l-57.72338,99.98746-57.72337-100.00528h115.44664Z"/>
        <path class="z" d="M1358.65094,956.863l-57.72326,99.98746h115.44663l-57.72337-100.00528Z"/>
        <path class="y" d="M1358.65094,956.863l-57.72326,99.98746-57.7226-100.00528h115.446Z"/>
        <polygon class="ai" points="1445.585 956.845 1358.65 956.845 1416.374 1056.851 1445.585 1006.251 1445.585 956.845"/>
        <path class="al" d="M146.46594,1056.8423,88.7426,1156.80744H204.18854l-57.7226-99.957Z"/>
        <path class="al" d="M146.46594,1056.8423,88.7426,1156.80744l-57.72334-99.957H146.46594Z"/>
        <path class="bh" d="M261.91194,1056.8423l-57.7234,99.96514H319.63523l-57.72333-99.957Z"/>
        <path class="av" d="M261.91194,1056.8423l-57.7234,99.96514-57.7226-99.957h115.446Z"/>
        <path class="au" d="M377.35782,1056.8423l-57.72261,99.96514h115.446l-57.72334-99.957Z"/>
        <path class="au" d="M377.35782,1056.8423l-57.72261,99.96514-57.72334-99.957H377.35779Z"/>
        <path class="ac" d="M492.80451,1056.8423l-57.72335,99.96514H550.52711l-57.7226-99.957Z"/>
        <path class="an" d="M492.80451,1056.8423l-57.72335,99.96514-57.72334-99.957H492.80451Z"/>
        <path class="aw" d="M608.25045,1056.8423l-57.72334,99.96514H665.97377l-57.72332-99.957Z"/>
        <path class="bj" d="M608.25045,1056.8423l-57.72334,99.96514-57.7226-99.957H608.25045Z"/>
        <path class="ae" d="M723.69637,1056.8423l-57.7226,99.96514h115.446l-57.72338-99.957Z"/>
        <path class="bi" d="M723.69637,1056.8423l-57.7226,99.96514-57.72332-99.957H723.69637Z"/>
        <path class="ao" d="M839.14306,1056.8423l-57.72331,99.96514h115.446l-57.7226-99.957Z"/>
        <path class="ae" d="M839.14306,1056.8423l-57.72331,99.96514-57.72338-99.957H839.14306Z"/>
        <path class="ay" d="M954.589,1056.8423l-57.72332,99.96514h115.44664l-57.72338-99.957Z"/>
        <path class="ad" d="M954.589,1056.8423l-57.72332,99.96514-57.7226-99.957H954.589Z"/>
        <path class="bo" d="M1070.035,1056.8423l-57.7226,99.96514h115.446l-57.72337-99.957Z"/>
        <path class="bo" d="M1070.035,1056.8423l-57.7226,99.96514-57.72338-99.957h115.446Z"/>
        <path class="bf" d="M1185.48159,1056.8423l-57.72337,99.96514h115.44664l-57.72338-99.957Z"/>
        <path class="bo" d="M1185.48159,1056.8423l-57.72337,99.96514-57.72337-99.957h115.44663Z"/>
        <path class="y" d="M1300.92768,1056.8423l-57.7226,99.96514h115.446l-57.72337-99.957Z"/>
        <path class="ba" d="M1300.92768,1056.8423l-57.7226,99.96514-57.72338-99.957h115.446Z"/>
        <polygon class="u" points="1445.585 1107.434 1416.374 1056.851 1416.374 1056.842 1358.65 1156.807 1445.585 1156.807 1445.585 1107.434"/>
        <path class="u" d="M1416.37431,1056.8423l-57.72337,99.96514-57.72337-99.957H1416.3742Z"/>
        <path class="bp" d="M88.7426,1156.82152l-57.72334,99.99109H146.46594L88.7426,1156.80733Z"/>
        <path class="bq" d="M204.18854,1156.82152l-57.7226,99.9912h115.446l-57.7234-100.00528Z"/>
        <path class="br" d="M204.18854,1156.82152l-57.7226,99.9912L88.7426,1156.80744H204.18854Z"/>
        <path class="bn" d="M319.63523,1156.82152l-57.72329,99.9912H377.35787l-57.7226-100.00528Z"/>
        <path class="bh" d="M319.63523,1156.82152l-57.72329,99.9912-57.7234-100.00528H319.63523Z"/>
        <path class="am" d="M435.08116,1156.82152l-57.72334,99.99109H492.80451l-57.72335-100.00528Z"/>
        <path class="au" d="M435.08116,1156.82152l-57.72334,99.99109-57.72261-100.00528h115.446Z"/>
        <path class="aw" d="M550.52711,1156.82152l-57.7226,99.99109H608.25045l-57.72334-100.00528Z"/>
        <path class="bs" d="M550.52711,1156.82152l-57.7226,99.99109-57.72335-100.00528H550.52711Z"/>
        <path class="bj" d="M665.97377,1156.82152l-57.72332,99.99109H723.69637l-57.7226-100.00528Z"/>
        <path class="ao" d="M665.97377,1156.82152l-57.72332,99.99109-57.72334-100.00528H665.97377Z"/>
        <path class="aw" d="M781.41975,1156.82152l-57.72338,99.99109H839.14306l-57.72331-100.00528Z"/>
        <path class="ax" d="M781.41975,1156.82152l-57.72338,99.99109-57.7226-100.00528h115.446Z"/>
        <path class="bi" d="M896.86572,1156.82152l-57.7226,99.99109H954.589l-57.72332-100.00517Z"/>
        <path class="ax" d="M896.86572,1156.82152l-57.7226,99.99109L781.4198,1156.80733H896.86572Z"/>
        <path class="bf" d="M1012.31236,1156.82152,954.589,1256.81261h115.446l-57.7226-100.00528Z"/>
        <path class="ad" d="M1012.31236,1156.82152,954.589,1256.81261l-57.72326-100.00517h115.44664Z"/>
        <path class="ae" d="M1127.75833,1156.82152l-57.72337,99.99109h115.44663l-57.72337-100.00528Z"/>
        <path class="bo" d="M1127.75833,1156.82152l-57.72337,99.99109-57.7226-100.00528h115.446Z"/>
        <path class="ag" d="M1243.205,1156.82152l-57.72338,99.99109h115.44609l-57.7226-100.00528Z"/>
        <path class="ay" d="M1243.205,1156.82152l-57.72338,99.99109-57.72337-100.00528h115.44664Z"/>
        <path class="ag" d="M1358.65094,1156.82152l-57.72326,99.9912h115.44663l-57.72337-100.00528Z"/>
        <path class="ah" d="M1358.65094,1156.82152l-57.72326,99.9912-57.7226-100.00528h115.446Z"/>
        <polygon class="x" points="1445.585 1156.807 1358.65 1156.807 1416.374 1256.813 1445.585 1206.212 1445.585 1156.807"/>
        <path class="bd" d="M146.46594,1256.80084,88.7426,1356.76972H204.18854l-57.7226-99.957Z"/>
        <path class="bt" d="M146.46594,1256.80084,88.7426,1356.76972l-57.72334-99.957H146.46594Z"/>
        <path class="bh" d="M261.91194,1256.80084l-57.7234,99.96888H319.63523l-57.72333-99.957Z"/>
        <path class="av" d="M261.91194,1256.80084l-57.7234,99.96888-57.7226-99.957h115.446Z"/>
        <path class="au" d="M377.35782,1256.80084l-57.72261,99.96888h115.446l-57.72334-99.957Z"/>
        <path class="au" d="M377.35782,1256.80084l-57.72261,99.96888-57.72334-99.957H377.35779Z"/>
        <path class="bn" d="M492.80451,1256.80084l-57.72335,99.96888H550.52711l-57.7226-99.957Z"/>
        <path class="bm" d="M492.80451,1256.80084l-57.72335,99.96888-57.72334-99.957H492.80451Z"/>
        <path class="bs" d="M608.25045,1256.80084l-57.72334,99.96888H665.97377l-57.72332-99.957Z"/>
        <path class="ac" d="M608.25045,1256.80084l-57.72334,99.96888-57.7226-99.957H608.25045Z"/>
        <path class="bs" d="M723.69637,1256.80084l-57.7226,99.96888h115.446l-57.72338-99.957Z"/>
        <path class="bs" d="M723.69637,1256.80084l-57.7226,99.96888-57.72332-99.957H723.69637Z"/>
        <path class="bj" d="M839.14306,1256.80084l-57.72331,99.96888h115.446l-57.7226-99.957Z"/>
        <path class="be" d="M839.14306,1256.80084l-57.72331,99.96888-57.72338-99.957H839.14306Z"/>
        <path class="bi" d="M954.589,1256.80084l-57.72332,99.96888h115.44664l-57.72338-99.957Z"/>
        <path class="ax" d="M954.589,1256.80084l-57.72332,99.96888-57.7226-99.957H954.589Z"/>
        <path class="ax" d="M1070.035,1256.80084l-57.7226,99.96888h115.446l-57.72337-99.957Z"/>
        <path class="ae" d="M1070.035,1256.80084l-57.7226,99.96888-57.72338-99.957h115.446Z"/>
        <path class="ae" d="M1185.48159,1256.80084l-57.72337,99.96888h115.44664l-57.72338-99.957Z"/>
        <path class="bi" d="M1185.48159,1256.80084l-57.72337,99.96888-57.72337-99.957h115.44663Z"/>
        <path class="bo" d="M1300.92768,1256.80084l-57.7226,99.96888h115.446l-57.72337-99.957Z"/>
        <path class="ap" d="M1300.92768,1256.80084l-57.7226,99.96888-57.72338-99.957h115.446Z"/>
        <polygon class="bf" points="1445.585 1307.396 1416.374 1256.813 1416.374 1256.801 1358.65 1356.771 1445.585 1356.771 1445.585 1307.396"/>
        <path class="af" d="M1416.37431,1256.80084l-57.72337,99.96888-57.72337-99.957H1416.3742Z"/>
        <path class="bu" d="M88.7426,1356.78017l-57.72334,99.99494H146.46594L88.7426,1356.76983Z"/>
        <path class="bk" d="M204.18854,1356.78017l-57.7226,99.99494h115.446l-57.7234-100.00539Z"/>
        <path class="br" d="M204.18854,1356.78017l-57.7226,99.99494L88.7426,1356.76983H204.18854Z"/>
        <path class="av" d="M319.63523,1356.78017l-57.72329,99.99494H377.35787l-57.7226-100.00528Z"/>
        <path class="bk" d="M319.63523,1356.78017l-57.72329,99.99494-57.7234-100.00539H319.63523Z"/>
        <path class="bl" d="M435.08116,1356.78017l-57.72334,99.99494H492.80451l-57.72335-100.00528Z"/>
        <path class="bl" d="M435.08116,1356.78017l-57.72334,99.99494-57.72261-100.00528h115.446Z"/>
        <path class="bn" d="M550.52711,1356.78017l-57.7226,99.99494H608.25045l-57.72334-100.00528Z"/>
        <path class="bl" d="M550.52711,1356.78017l-57.7226,99.99494-57.72335-100.00528H550.52711Z"/>
        <path class="bn" d="M665.97377,1356.78017l-57.72332,99.99494H723.69637l-57.7226-100.00528Z"/>
        <path class="bm" d="M665.97377,1356.78017l-57.72332,99.99494-57.72334-100.00528H665.97377Z"/>
        <path class="bn" d="M781.41975,1356.78017l-57.72338,99.99494H839.14306l-57.72331-100.00528Z"/>
        <path class="an" d="M781.41975,1356.78017l-57.72338,99.99494-57.7226-100.00528h115.446Z"/>
        <path class="am" d="M896.86572,1356.78017l-57.7226,99.99494H954.589l-57.72332-100.00539Z"/>
        <path class="aw" d="M896.86572,1356.78017l-57.7226,99.99494L781.4198,1356.76983H896.86572Z"/>
        <path class="ac" d="M1012.31236,1356.78017,954.589,1456.77511h115.446l-57.7226-100.00528Z"/>
        <path class="ao" d="M1012.31236,1356.78017,954.589,1456.77511l-57.72326-100.00539h115.44664Z"/>
        <path class="bj" d="M1127.75833,1356.78017l-57.72337,99.99494h115.44663l-57.72337-100.00528Z"/>
        <path class="ac" d="M1127.75833,1356.78017l-57.72337,99.99494-57.7226-100.00528h115.446Z"/>
        <path class="bi" d="M1243.205,1356.78017l-57.72338,99.99494h115.44609l-57.7226-100.00528Z"/>
        <path class="bi" d="M1243.205,1356.78017l-57.72338,99.99494-57.72337-100.00528h115.44664Z"/>
        <path class="ao" d="M1358.65094,1356.78017l-57.72326,99.99494h115.44663l-57.72337-100.00528Z"/>
        <path class="ay" d="M1358.65094,1356.78017l-57.72326,99.99494-57.7226-100.00528h115.446Z"/>
        <polygon class="bi" points="1445.585 1356.771 1358.65 1356.771 1416.374 1456.776 1445.585 1406.173 1445.585 1356.771"/>
        <polygon class="bp" points="33.665 1461.354 143.813 1461.354 146.457 1456.776 31.02 1456.776 33.665 1461.354"/>
        <polygon class="bg" points="149.11 1461.354 259.259 1461.354 261.903 1456.776 146.466 1456.776 149.11 1461.354"/>
        <polygon class="bv" points="264.557 1461.354 374.706 1461.354 377.349 1456.776 261.913 1456.776 264.557 1461.354"/>
        <polygon class="bv" points="380.003 1461.354 490.152 1461.354 492.796 1456.776 377.358 1456.776 380.003 1461.354"/>
        <polygon class="bq" points="495.449 1461.354 605.598 1461.354 608.241 1456.776 492.805 1456.776 495.449 1461.354"/>
        <polygon class="av" points="610.895 1461.354 721.044 1461.354 723.689 1456.776 608.251 1456.776 610.895 1461.354"/>
        <polygon class="bh" points="726.341 1461.354 836.49 1461.354 839.134 1456.776 723.697 1456.776 726.341 1461.354"/>
        <polygon class="bh" points="841.788 1461.354 951.936 1461.354 954.58 1456.776 839.143 1456.776 841.788 1461.354"/>
        <polygon class="bl" points="957.233 1461.354 1067.383 1461.354 1070.027 1456.776 954.589 1456.776 957.233 1461.354"/>
        <polygon class="bm" points="1072.679 1461.354 1182.829 1461.354 1185.472 1456.776 1070.036 1456.776 1072.679 1461.354"/>
        <polygon class="bs" points="1188.126 1461.354 1298.276 1461.354 1300.92 1456.776 1185.482 1456.776 1188.126 1461.354"/>
        <polygon class="bs" points="1303.572 1461.354 1413.722 1461.354 1416.365 1456.776 1300.929 1456.776 1303.572 1461.354"/>
      </g>
    </g>
    <g>
      <path class="bw" d="M1353.68127,708.24716s-79.95007,117.32242,0,234.64489H146.31868s63.72835-123.96335,0-234.64489Z"/>
      <g>
        <path class="bx" d="M327.02007,814.908c27.71859,1.37177,66.67173,3.24771,66.62773,28.1559.03344,28.382-32.4806,35.14582-67.36684,35.18717-34.81234-.03255-63.71615-4.2112-67.4478-35.02791l40.57743-.04839c4.44349,7.68152,14.719,9.66481,26.84045,9.65073,12.04758-.01408,26.82813-2.02729,26.81933-9.71409-.00527-4.36078-12.05374-5.0119-27.65-5.73254-27.71858-1.37088-66.67172-3.24683-66.62772-28.0811-.03344-28.382,32.47971-35.22061,67.366-35.262,34.81233.18126,63.71615,4.06426,67.44868,35.1027l-40.57744.04752c-4.44349-7.82935-14.71983-9.66482-26.8413-9.65074-12.04758.01408-26.82725,1.80556-26.81845,9.71409C299.3754,813.61015,311.423,814.18737,327.02007,814.908Z"/>
        <path class="bx" d="M501.93789,776.26811l38.80356-.04576.06247,53.36413c.1927,37.54618-30.5413,48.37335-67.79272,48.49125-37.25142-.02991-68.01182-10.78492-67.90887-48.33111l-.06247-53.36413,38.72965-.04575.06071,50.92505c-.12847,16.33445,13.25216,19.12725,29.144,19.33051,15.81619-.2411,29.26545-3.06557,29.02436-19.39914Z"/>
        <path class="bx" d="M561.969,776.19683l48.486-.05719,38.78772,49.6228,38.74554-49.71431,48.41205-.05719.117,99.33711-38.72965.04575-.06247-52.99457-38.74108,53.04033-19.36483.02287-38.866-52.94882.06247,52.99458-38.72964.04575Z"/>
        <path class="bx" d="M762.72684,775.96014l48.486-.05719,38.78948,49.6228,38.74554-49.71431,48.41205-.05719.11615,99.3371-38.72965.04576-.06159-52.99458-38.742,53.04033-19.36483.02288-38.86608-52.94882.06247,52.99458-38.72965.04575Z"/>
        <path class="bx" d="M963.48641,775.87127l116.26286-.13726.02991,25.42557-77.5332.09151.01408,12.71278,77.5332-.09151.02816,22.98649-77.53321.09151.01408,12.71278,77.53321-.0915.02991,25.4986-116.26285.13726Z"/>
        <path class="bx" d="M1199.79568,775.51843c20.4735-.24637,37.86383,16.95478,37.59106,37.50219a36.20739,36.20739,0,0,1-5.9622,20.33271,37.25491,37.25491,0,0,1-15.6534,13.6182l21.68951,27.83914-41.24264.04839L1177.48848,850.639l-34.5906.04048.02991,24.243-38.72964.04576-.11791-99.33711Zm-56.9506,29.11411.01936,16.92574,47.22948-.05543a8.4536,8.4536,0,0,0,8.48915-8.41789l.00011-.01859a8.45205,8.45205,0,0,0-8.41469-8.48937q-.04686-.00016-.09393.00011Z"/>
      </g>
    </g>
    <g>
      <path class="bx" d="M634.64342,1073.6178a44.52808,44.52808,0,0,1-17.45017-16.55266,48.25777,48.25777,0,0,1,0-47.863,44.52817,44.52817,0,0,1,17.45017-16.55267,55.68566,55.68566,0,0,1,46.0663-1.8601,42.2934,42.2934,0,0,1,15.847,11.80472l-13.34461,12.31859q-9.11225-10.52051-22.5835-10.52183a29.98384,29.98384,0,0,0-14.88531,3.65686,25.99069,25.99069,0,0,0-10.20067,10.20155,32.12015,32.12015,0,0,0,0,29.76875,25.99072,25.99072,0,0,0,10.20067,10.20156,29.98388,29.98388,0,0,0,14.88526,3.65686q13.473,0,22.58349-10.6503l13.34456,12.31859a41.58973,41.58973,0,0,1-15.91122,11.93319,52.81773,52.81773,0,0,1-21.17214,4.10649A51.58591,51.58591,0,0,1,634.64342,1073.6178Z"/>
      <path class="bx" d="M719.71736,1068.9341q-10.71717-10.64986-10.71541-30.41108V988.2227h20.78762v49.53041q0,24.12552,20.0177,24.12332,9.74973,0,14.88526-5.83813,5.12893-5.8377,5.13157-18.28519V988.2227h20.53157V1038.523q0,19.7621-10.71541,30.41108-10.71453,10.65251-29.96145,10.6503Q730.43146,1079.5844,719.71736,1068.9341Z"/>
      <path class="bx" d="M870.4881,992.20072a30.80032,30.80032,0,0,1,13.53813,11.29175,33.85864,33.85864,0,0,1,0,34.5818A30.2449,30.2449,0,0,1,870.4881,1049.366q-8.7902,3.91467-20.72339,3.91379H831.67222v24.76477H810.88548V988.2227h38.87923Q861.69879,988.2227,870.4881,992.20072Zm-7.634,40.09866q4.87289-4.04138,4.87464-11.48444,0-7.56933-4.87464-11.61291-4.87816-4.04138-14.24381-4.04138H831.67222v31.181h16.93806Q857.97594,1036.34181,862.85415,1032.29938Z"/>
    </g>
    <g>
      <path class="bx" d="M654.67867,1257.29678c6.57373-8.13027,12.887-16.26054,19.54784-24.73661,4.58428-5.70879,8.82187-10.81132,8.82187-17.29882a10.589,10.589,0,0,0-10.62379-10.55406q-.09379.00033-.18753.00231c-6.74619,0-11.41669,5.44921-11.8496,12.71454l-7.61113-2.16279c.60537-9.68681,7.78359-18.682,19.46073-18.682,11.58915,0,19.114,8.909,19.114,18.42333,0,7.61113-4.15136,13.57861-8.99433,19.71942-4.06513,5.18965-8.30361,10.37929-12.45585,15.56894h22.14178v7.95693h-37.364Z"/>
      <path class="bx" d="M708.13436,1227.97589c0-16.77879,5.18965-31.137,19.72031-31.137,14.44442,0,19.63314,14.3582,19.63314,31.137,0,16.86591-5.18877,31.137-19.63314,31.137C713.324,1259.11289,708.13436,1244.8418,708.13436,1227.97589Zm31.22323,0c0-11.33046-2.50859-23.00672-11.50292-23.00672-9.16855,0-11.59,11.67626-11.59,23.00672,0,11.4167,2.42149,23.00673,11.59,23.00673C736.849,1250.98262,739.35759,1239.39259,739.35759,1227.97589Z"/>
      <path class="bx" d="M763.58034,1257.29678c6.57285-8.13027,12.887-16.26054,19.547-24.73661,4.5834-5.70879,8.82275-10.81132,8.82275-17.29882a10.58916,10.58916,0,0,0-10.62418-10.55406q-.094.00033-.188.00231c-6.74619,0-11.41669,5.44921-11.84873,12.71454l-7.61112-2.16279c.60537-9.68681,7.78358-18.682,19.45985-18.682,11.59,0,19.11493,8.909,19.11493,18.42333,0,7.61113-4.15136,13.57861-8.99609,19.71942-4.06338,5.18965-8.30273,10.37929-12.45409,15.56894h22.14178v7.95693h-37.364Z"/>
      <path class="bx" d="M835.71624,1196.75267V1258.248H827.586v-47.74334l-8.04228,4.93008-3.72021-6.74619,19.0287-11.93583Z"/>
    </g>
    <polygon class="by" points="618.938 102.828 618.938 248.485 745.081 321.313 871.223 248.485 871.223 102.828 745.081 30 618.938 102.828"/>
    <g>
      <path class="bz" d="M508.09278,465.1338q-.00771-2.34355-2.07708-2.61311-16.74871-2.18745-33.46087-4.72646-.92315,6.883-1.84624,13.79052.37533.05337,1.5022.10067a8.19714,8.19714,0,0,1,2.25461.42268,5.00848,5.00848,0,0,1,2.06864,1.378,4.5623,4.5623,0,0,1,.9468,3.1887,5.25369,5.25369,0,0,1-.93074,3.48647,6.9617,6.9617,0,0,1-2.15652,1.69072,17.72447,17.72447,0,0,0-2.15658,1.25611,2.45672,2.45672,0,0,0-.93415,2.18622q.00387,1.86792.00761,3.73743.00641,2.63878.01268,5.27676.00511,2.63763.011,5.27609l.01015,4.17694q.005,2.52867.01091,5.05706.01155,4.835-.164,10.53421a28.79081,28.79081,0,0,1-1.11,8.25422q-9.87571-1.99074-19.7429-4.09159-.8028-32.69447-1.60367-65.48276a11.4442,11.4442,0,0,0-1.69-2.18793,6.17628,6.17628,0,0,0-3.56241-2.28749q-15.36383-2.95332-30.688-6.22449.37417,40.58174.75078,81.09939c.12511,3.89207,2.7204,7.41562,7.79178,10.49356a71.03664,71.03664,0,0,0,19.45125,7.6025q.88387,30.38912,1.771,60.67681.75327.0165.94265.92142a4.91025,4.91025,0,0,1,.00253,1.91823,8.34858,8.34858,0,0,1-.46836,1.6849q-.14081.33723-.28151.67373.29169,7.23162.58417,14.456,18.28807-.32724,36.57684-.63237.44-12.659.88006-25.29446-.00507-1.96179-3.02056-2.03823a2.38579,2.38579,0,0,1-1.79213-1.24957q-.85217-1.2273-1.70173-2.5665-.851-1.34031-1.70175-2.57508-.85089-1.23374-1.60367-1.2604.74943-1.736,1.97474-1.14376a23.76239,23.76239,0,0,1,2.641,1.51144,13.40468,13.40468,0,0,0,2.73481,1.39833q1.32.47672,2.25719-1.46a24.21006,24.21006,0,0,0,.27558-2.7162q.09-1.632.08458-4.02994-.01028-4.14267-.21137-9.38451-.20162-5.242-.49541-10.164-.29537-4.92517-.49277-8.86537-.1979-3.93982-.20123-5.24981,3.00909-.45385,2.63247-1.13281a23.73508,23.73508,0,0,0,6.10955-2.73638q3.85368-2.22807,7.7994-4.96571,3.9463-2.73522,7.1392-5.39186a18.69446,18.69446,0,0,0,4.12967-4.28786l.279-1.25782q.04566-.20919.093-.41932-.16874-24.74122-.33566-49.48823a4.95879,4.95879,0,0,1-.76251-3.0747,36.41269,36.41269,0,0,1,.73208-7.162A32.29465,32.29465,0,0,0,508.09278,465.1338Z"/>
      <path class="bz" d="M614.26869,474.28148q-19.939-1.33145-39.85017-3.14482,0-.308-.00165-.61711-5.095-.492-11.13026-1.00935-6.03591-.52105-11.59594-.92822-5.55921-.40452-9.89178-.70169-4.333-.29412-6.02667-.28907a3.34774,3.34774,0,0,0-1.219,1.651,3.853,3.853,0,0,0-.088,1.892q.19023.97384.47768,2.16917a10.72132,10.72132,0,0,1,.28913,2.46339q-.21185,22.16327-.42609,44.34337,1.04354,2.83413,2.0889,5.65726a5.6362,5.6362,0,0,0,4.23534-1.15646q1.59652-1.35309,4.98942-1.09729.189.01526-1.50221,1.46162-1.69176,1.44936-3.85324,3.08223-2.162,1.63068-3.75767,3.10088-1.59771,1.46718-1.21987,1.49539.00248.84594-.2621,6.85012-.2624,6.00441-.51988,14.44745-.25746,8.44152-.41589,17.95325-.15859,9.51049-.13523,17.12817.01637,5.18388.03209,10.36676.32724,13.96788.65261,27.92531,29.4127-.20656,58.82627-.39981-.76081-2.34082-1.52333-4.68513a12.10559,12.10559,0,0,1,3.02724,3.26233,3.58126,3.58126,0,0,0,3.21166,1.83019q1.79054,0,3.58185.00088,3.67736,0,7.354.00077,4.1478,0,7.44686-.10058a16.99543,16.99543,0,0,0,3.67573-.3q.62511-12.95341,1.24946-25.89132-18.4858.08365-36.96661.10812-.66066.04066-1.32045.082-1.31881.08234-2.82778.05918-1.79181-.0293-3.58352-.05753c-.31446-.00412-.62814-.00929-.94265-.0143q-.7545-.0127-1.79219-.132a23.16365,23.16365,0,0,1-4.05777-1.202q-.24359-16.821-.48611-33.64939,23.00892.78886,46.0349,1.3281.65307-2.49541,1.307-4.99112-.61382-.06838-1.22751-.13693-1.22631-.13818-2.64355-.38292-1.41645-.246-2.64349-.486-1.22754-.241-1.22834-.443v-.2021q4.43057-1.46965,8.86212-2.93848a7.64871,7.64871,0,0,0,.93248-3.98848q-.00512-1.80959-.00941-3.61737a2.36836,2.36836,0,0,1,.37286-1.59438q-.48315-3.83342-.96624-7.671-3.30333-.128-6.60744-.2654-20.956-.6671-41.89346-1.62732-.005-1.651-.01015-3.30133a7.69818,7.69818,0,0,1-1.61461-3.50062,8.64958,8.64958,0,0,1,.18008-2.57079,12.07733,12.07733,0,0,1,.8411-2.42451,7.18469,7.18469,0,0,0,.55543-3.05941q-.00259-.82557.17409-4.32074.1776-3.49233.25869-7.71656.07984-4.22145.257-8.12576.17488-3.90319.169-5.75954-.00128-.30951-.00168-.61885,26.41368,2.35611,52.8723,3.99189-.19773-3.82072-.39816-7.6405.63527-9.58911,1.27146-19.16635Q619.56117,474.66175,614.26869,474.28148Z"/>
      <path class="bz" d="M743.76594,595.22212a35.6105,35.6105,0,0,1,.18929-3.62249,21.57471,21.57471,0,0,1,.75413-3.81849q-.18775-40.73523-.37874-81.46976a3.96183,3.96183,0,0,1-2.176-2.84131,19.23023,19.23023,0,0,1-.66355-5.38751q-.00125-3.132.09459-6.65732a34.92483,34.92483,0,0,0-.37957-6.46368,11.31628,11.31628,0,0,0-1.89448-4.90242,5.164,5.164,0,0,0-4.45-1.98065q-38.634-.23971-77.2369-2.30278-3.40472-.18259-4.91331,1.72282a25.43738,25.43738,0,0,0-2.26051,3.26233,13.66149,13.66149,0,0,0-.75155,2.05165,11.74119,11.74119,0,0,0-.37021,3.27086,45.29185,45.29185,0,0,0,1.06176,9.03112,45.15736,45.15736,0,0,1,1.06259,9.02277,9.9389,9.9389,0,0,1-2.25287,6.27775q-.4603,43.07228-.91724,86.18184,4.34444,2.347,8.68966,4.67568-1.88565.38052-4.43233.65437-2.5464.27642-3.29786,1.26469a3.2849,3.2849,0,0,0-.37192,1.99248l.00247.99841q.00636,2.69472.01276,5.3885.00636,2.39412.20117,4.79072.194,2.394.19952,4.39086.0038,1.79566.10234,3.09241c.06429.8656.09717,1.36269.09717,1.49715q.75711.79884,1.51327,1.59515,16.49752.0037,32.99666.00681.05073-25.25983.10234-50.518-2.74156-2.5996-5.48485-5.21005,3.02311,1.13226,6.04612,2.258a1.87038,1.87038,0,0,1,1.50979-.27563q1.13244.11426,1.6992.121,8.969.11153,17.93889.19011a2.28063,2.28063,0,0,1,1.13364.59938q.75578.596.75578.98829.00123.98139.28833,3.93012a11.17484,11.17484,0,0,0,.85378,3.93359q.02161,20.422.04234,40.84427.28526,1.57235.56891,3.14146,17.06442.00247,34.12866.00165a17.09071,17.09071,0,0,0,1.225-5.48227q.09511-2.54755.0947-4.70108a102.94934,102.94934,0,0,0-.56638-10.96789A99.54608,99.54608,0,0,1,743.76594,595.22212ZM708.0378,540.53479q-.18634,2.1582-.18511,3.14058c-.12511.25951-.28328.61879-.47091,1.07441-.1894.4565-.34575.81412-.47174,1.07446q-1.13358-.01526-3.68579-.14787-2.55011-.13323-5.29127-.27563-2.74026-.142-5.29117-.28487-2.55135-.14337-3.685-.16657a4.61923,4.61923,0,0,1-3.499-2.04071,18.95745,18.95745,0,0,1-2.08553-4.08906q-.85476-2.28894-1.7086-4.67837a8.89815,8.89815,0,0,0-2.18022-3.61061c-.00083-.06506-.00083-.131-.00083-.19693a.80853.80853,0,0,1,.18852-.58755,3.7151,3.7151,0,0,1,2.17005-1.82013,3.63459,3.63459,0,0,0,2.171-2.01706q1.131-1.15644,1.12523-5.10094a30.66164,30.66164,0,0,0-.29086-4.34775q-.28657-1.98084-.47933-3.76195a14.15877,14.15877,0,0,1,.08882-3.64785,15.9352,15.9352,0,0,1,1.22152-4.00876q2.27112.06855,4.54055.1294,4.72853.12935,9.743.43956a18.20188,18.20188,0,0,1,7.85266,1.9283q.00257,1.57121.10064,5.79507.09882,4.22385.10482,9.13347.00379,4.51792.00929,9.03359l.00589,5.89148A12.66229,12.66229,0,0,1,708.0378,540.53479Z"/>
      <path class="bz" d="M861.35007,475.06118q.00636-2.20134-2.26392-2.05682-16.831,1.05126-33.67732,1.75166-1.04483,2.41433-2.09054,4.82539,0,.19782-.09981,3.16506-.10014,2.966-.10729,6.91688-.00775,4.14664.07941,8.29234a39.33465,39.33465,0,0,0,.65008,6.89236q.18387,2.56141.27392,5.42469.08877,2.86086.08288,6.0233a38.47093,38.47093,0,0,1-.48367,5.84231,30.73824,30.73824,0,0,1-1.80742,6.46632q-9.35567.2398-18.714.40833a1.36787,1.36787,0,0,1-1.22839-.76414,7.69327,7.69327,0,0,1-.754-1.65778,9.21911,9.21911,0,0,1-.37621-1.56479c-.03129-.22916-.06264-.45739-.09388-.68649q-.2549-24.36961-.509-48.73336-15.52621.40329-31.05737.50888-.393,47.01485-.78454,94.02775a1.3736,1.3736,0,0,0,1.13287,1.46673,8.83545,8.83545,0,0,0,2.73819.18764,29.83489,29.83489,0,0,0,3.30546-.404,16.75948,16.75948,0,0,1,2.64338-.30516,5.859,5.859,0,0,1-2.26811,2.26393q-1.32134.69111-2.64431,1.28245a19.47035,19.47035,0,0,0-2.5488,1.3788,5.46751,5.46751,0,0,0-1.98494,2.55221,15.20848,15.20848,0,0,0-1.1337,3.33168,17.49258,17.49258,0,0,0-.18851,2.74237q.00007,1.37084-.00088,2.74243-.00125,3.62413-.00171,7.24734-.00116,3.81825-.00242,7.6389,0,4.11348-.19116,7.8349-.189,3.72172-.19011,6.6599.00009,2.05683-.00088,4.11441a8.71152,8.71152,0,0,0,.65937,2.05605,3.85234,3.85234,0,0,0,1.41345,2.05677,86.47031,86.47031,0,0,0,14.23617,1.66367q7.635.29308,15.17782.29251.47186-.98263.94518-1.9646.60491-32.23153,1.21057-64.47434c.06341-.26287.12594-.52574.18935-.7879.06253-.26364.12681-.52574.18934-.78866q.75709-.402,1.79643-1.00512a4.95532,4.95532,0,0,1,1.22927-.60708q8.78393-.11523,17.5668-.27546.98156,33.15486,1.95717,66.34419a8.00856,8.00856,0,0,0,1.60021,1.67895,5.25324,5.25324,0,0,0,3.67314,1.481q15.27387-.005,30.54592-.01094.66084-36.79665,1.32475-73.62547a4.16285,4.16285,0,0,0-1.974-3.43738,27.17257,27.17257,0,0,0-4.62-2.651q-2.64144-1.21361-5.18811-2.33162a9.90224,9.90224,0,0,1-3.67649-2.47692,55.08459,55.08459,0,0,0,8.885-3.17352q4.537-2.05038,6.05706-5.1137a6.70934,6.70934,0,0,1,.3805-1.2147c.06341-.13617.12681-.27145.19022-.40756q-.13446-20.8-.2698-41.59245a4.25465,4.25465,0,0,1-.74813-2.958,32.16214,32.16214,0,0,1,.77354-6.44438A30.90476,30.90476,0,0,0,861.35007,475.06118Z"/>
      <path class="bz" d="M967.20773,593.83353q-.08875-1.79416-.07859-5.38581.014-4.22517.02623-8.45121.00372-1.05762-.17163-5.16946-.17505-4.11117-.3491-8.85531-.1738-4.74387-.35-8.74461-.17637-4.002-.17329-4.84736.01263-3.90436.02442-7.8096a8.54949,8.54949,0,0,0-4.31063-7.31169,26.82163,26.82163,0,0,0-8.56444-3.10841,39.55925,39.55925,0,0,0-8.57374-.69913q-3.96028.14708-4.14823.15469-.75455.04825-3.96141.34575-3.20691.2954-7.35651.535-3.77238.217-7.54574.42356a18.89837,18.89837,0,0,1-4.33928.03047q-.0928-.814-.18352-1.62561-.74191-4.45581-1.20045-8.40981a66.03765,66.03765,0,0,1-.44721-7.83324q.01129-3.88143.30774-7.6769.29408-3.7964.49627-7.69208,10.00635-1.22987,20.00489-2.56909,14.14531-.75313,28.27529-1.689.97-9.36853,1.94095-18.76231a10.99835,10.99835,0,0,0-.27646-1.76261q-.27758-1.34034-.46321-2.37386a8.268,8.268,0,0,1-.55544-3.10076q.005-1.26561.00842-2.53106a11.74457,11.74457,0,0,0-.08876-1.6756q-.09248-.62256-1.41086-.46583-30.23568,3.78653-60.56193,6.42822a22.34253,22.34253,0,0,0-7.28364,3.60044,35.9889,35.9889,0,0,0-5.87295,5.46368,30.42933,30.42933,0,0,0-4.07888,6.00641,19.32593,19.32593,0,0,0-1.90377,5.2431q-.38054.42474-.39057,4.44239-.01138,4.01853-.02194,8.03535-.01278,4.22013.16647,7.8256.18,3.6064.17757,4.21087-.00123.60243.2747,2.79825.279,2.19745-.289,2.42445-.03175,11.25286-.06264,22.50562-.00627,2.11011-.01177,4.21928a37.03406,37.03406,0,0,0,2.6292,4.63355,20.17572,20.17572,0,0,0,3.95212,4.29875,32.998,32.998,0,0,0,5.93277,3.8439,61.26786,61.26786,0,0,0,8.38627,3.47532q15.19-.492,30.37176-1.09728l-.08706,26.65638a42.075,42.075,0,0,1-.29845,4.75855q-.14592,1.24164-.28987,2.48456-25.08126.662-50.17147,1.17258.36519,4.51694.72965,9.038a1.40179,1.40179,0,0,0,.37446,1.00265.936.936,0,0,0,.09222.40068c.032.06676.06418.1344.09542.20117a14.18234,14.18234,0,0,0,2.449.88683q1.69544.49072,2.45.68643-.00389,1.41132-1.70261,1.62391-.75577.20556-2.07623.71772-1.32273.50972-1.32381.91218a9.7195,9.7195,0,0,0-1.427,4.62838,12.434,12.434,0,0,0,1.39833,5.62685q.18758.80377.37357,1.60867,15.6492-.10006,31.30011-.20458a3.39028,3.39028,0,0,1,.00506-1.63485,2.411,2.411,0,0,1,.75825-1.63672q.00255-.40948,1.60625-.61719,1.60164-.209,1.79225-.20959-.00759,2.04924-.01353,4.09835,10.55781-.00115,21.11742-.00335a28.55713,28.55713,0,0,0,10.84784-1.8843,27.09341,27.09341,0,0,0,7.74537-4.63779,19.20983,19.20983,0,0,0,4.63684-5.828,12.6307,12.6307,0,0,0,1.525-5.40115q-.08488-3.06229-.16917-6.12388-2.72754-2.16975-5.45268-4.32234,2.73671-1.10842,5.473-2.22757A9.19209,9.19209,0,0,0,967.20773,593.83353Z"/>
      <path class="bz" d="M1086.64086,601.70874q-.56572-6.26813-.5638-12.5428-.00116-2.0937.18775-4.31063a30.90611,30.90611,0,0,1,.75319-4.57267q-.18741-48.40851-.37362-96.77787-1.4977-.47019-2.15235-3.03988a25.76838,25.76838,0,0,1-.65431-6.27855q0-3.71175.09569-7.90419a48.37589,48.37589,0,0,0-.373-7.59,12.72321,12.72321,0,0,0-1.86924-5.45672q-1.4025-2.06077-4.39487-1.50988-38.15742,6.92987-76.54552,12.04233a6.49528,6.49528,0,0,0-4.8973,2.78227,36.17779,36.17779,0,0,0-2.269,3.91569,18.38092,18.38092,0,0,0-.7599,2.33324,14.337,14.337,0,0,0-.38732,3.56406,49.11822,49.11822,0,0,0,1.00787,9.47924,49.08579,49.08579,0,0,1,1.00583,9.49351,12.681,12.681,0,0,1-2.27833,7.05806q-.70249,46.10421-1.40575,92.12738,4.32795,2.3372,8.65491,4.7046-1.88426.47168-4.43068.84778-2.54475.37674-3.30276,1.45744a3.78541,3.78541,0,0,0-.383,2.13805c-.00071.35493-.00165.7109-.00253,1.066q-.009,2.876-.01776,5.75366-.00752,2.55613.17246,5.11194.18156,2.55638.17411,4.68849-.00627,1.91856.08458,3.30286.09115,1.386.08958,1.59944.75223.85089,1.50392,1.70343,16.49762-.00627,32.99589-.01677.15862-28.08894.31775-56.18713-2.72341-2.715-5.44663-5.40445,3.00885,1.036,6.019,2.08206a1.80421,1.80421,0,0,1,1.50737-.4108q1.12865.04809,1.69321.0176,8.94246-.4881,17.87982-1.0126a2.00376,2.00376,0,0,1,1.12842.60614q.75339.62907.75072,1.07777-.00132,1.121.27574,4.47126a13.88506,13.88506,0,0,0,.84025,4.4458l-.07183,46.70527q.28014,1.79566.55951,3.59291,17.0644-.01,34.12711-.02359a23.64374,23.64374,0,0,0,1.2257-6.51879q.09389-3.02823.09382-5.58885Q1087.20569,607.97975,1086.64086,601.70874Zm-36.04766-73.57553q-.19014,2.48652-.1927,3.6072-.18882.46516-.47262,1.27657-.2826.81146-.47091,1.27558-1.12954.10146-3.66621.21321-2.53617.11153-5.26416.23653-2.72508.1243-5.26427.22916-2.53857.104-3.66709.1977a3.98452,3.98452,0,0,1-3.47637-1.9079,19.63316,19.63316,0,0,1-2.05836-4.32333q-.83951-2.44725-1.67984-4.99854a8.58979,8.58979,0,0,0-2.154-3.73831v-.21733a1.05979,1.05979,0,0,1,.19022-.67367,4.62391,4.62391,0,0,1,2.16747-2.28846,4.57113,4.57113,0,0,0,2.16851-2.51667q1.13-1.43156,1.1404-5.82549a37.28068,37.28068,0,0,0-.27046-4.80342q-.27774-2.166-.46079-4.11876a17.81647,17.81647,0,0,1,.104-4.07289,21.80547,21.80547,0,0,1,1.23093-4.65054q2.25464-.27642,4.50926-.55884,4.69684-.58569,9.67191-1.00859c3.31634-.28146,5.91254.04477,7.78678.995q-.0024,1.79451.08359,6.60574t.07776,10.4218q-.00776,5.16241-.01606,10.32127-.00644,3.36792-.01094,6.73255a16.50589,16.50589,0,0,1-.00611,3.59043Z"/>
    </g>
    <g>
      <path class="bz" d="M737.99782,128.6401s.21414-5.23171,7.08269-9.22434c6.86855,3.99263,7.08269,9.22434,7.08269,9.22434a11.47585,11.47585,0,0,0,5.36937-3.25835c2.9371-5.27758-3.53368-9.22431-3.53368-9.22431.50479,3.3501-.91784,2.9371-.91784,2.9371-1.33085.32121-.87193-4.08441-.87193-4.08441-.04586-6.51671-7.12861-12.02379-7.12861-12.02379s-7.08269,5.50709-7.12856,12.02379c0,0,.45892,4.40562-.872,4.08441,0,0-1.42263.413-.91784-2.9371,0,0-6.47078,3.94673-3.53368,9.22431A11.47556,11.47556,0,0,0,737.99782,128.6401Z"/>
      <path class="bz" d="M730.56327,131.34774s2.20283-.66543,5.23172,5.98893c0,0,4.91809,3.48784,9.28552-6.792,4.36744,10.27987,9.28552,6.792,9.28552,6.792,3.02889-6.65436,5.23172-5.98893,5.23172-5.98893,3.00595-.02294,2.3864-1.92745,2.3864-1.92745-5.00229-5.16283-11.10593,2.93707-11.10593,2.93707,1.12435-5.62178-5.79771-10.32574-5.79771-10.32574s-6.92206,4.704-5.79771,10.32574c0,0-6.10364-8.09994-11.10592-2.93707C728.17688,129.42029,727.55737,131.32481,730.56327,131.34774Z"/>
      <path class="bz" d="M745.08051,153.08531s.36714,5.813,2.264,5.53765c0,0,3.97731-10.21866.7037-11.41187a7.17509,7.17509,0,0,0-5.93536,0c-3.27367,1.19321.70369,11.41187.70369,11.41187C744.71337,158.89834,745.08051,153.08531,745.08051,153.08531Z"/>
      <path class="bz" d="M725.37748,175.955s13.4464,2.70764,11.06-5.59884a8.6744,8.6744,0,0,0,8.643-7.84757,8.67443,8.67443,0,0,0,8.643,7.84757c-2.3864,8.30647,11.06,5.59884,11.06,5.59884,3.76316-1.74389,1.19319-3.62547,1.19319-3.62547-16.88834-4.58921-20.89623-12.48269-20.89623-12.48269s-4.00789,7.89348-20.89623,12.48269C724.18428,172.32947,721.61431,174.21105,725.37748,175.955Z"/>
      <path class="bz" d="M737.952,201.92994c6.65435,2.20283,6.24135-5.04815,6.24135-5.04815-3.35011-5.18581-7.5722-2.61586-7.5722-2.61586-.5507,3.62552,3.396,3.62552,3.396,3.62552-4.77279,1.46851-7.84755-5.23172-7.84755-5.23172-5.966-8.077-13.76767-5.3235-13.76767-5.3235-4.91044,2.38638-10.41757-1.33086-10.41757-1.33086,0,7.29685,3.21246,9.79974,3.21246,9.79974-.91785-5.25289.55071-6.22015.55071-6.22015,6.56256,5.69063,5.3235-.32124,5.3235-.32124,5.92012.96375,12.3909,6.379,12.3909,6.379C732.399,202.343,737.952,201.92994,737.952,201.92994Z"/>
      <path class="bz" d="M708.94805,184.598c2.90653,3.27364,15.38917-.66359,15.38917-.66359,3.396-.6636,11.16707,9.35256,11.16707,9.35256a5.09009,5.09009,0,0,0,0-7.67936c-.39771,2.63117-1.71333,1.6521-1.71333,1.6521a20.51879,20.51879,0,0,0-4.74221-6.945c-1.8969-1.46855-2.417.48953-2.417.48953-.09178-.0612-7.37333-1.92746-7.37333-1.92746-6.33313-1.77453-5.2623,2.69232-5.2623,2.69232a14.52775,14.52775,0,0,1-9.72915-7.64873,6.47541,6.47541,0,0,0,.33931,4.69632c-1.72581,8.16882,1.31275,9.39194,1.31275,9.39194-1.19319,1.31493-2.61588-.58066-2.61588-.58066a12.31566,12.31566,0,0,0,2.29461,7.43454c2.37111.38244.413-11.67192.413-11.67192C707.26535,181.81389,708.94805,184.598,708.94805,184.598Z"/>
      <path class="bz" d="M726.41774,166.02693s-5.87421,1.89689-8.56654,5.07878c0,0-2.01926,2.50874-3.61017-4.71163,0,0-6.119,2.38638-3.05946,8.383,0,0,3.243,3.48778,9.362-2.01925,0,0,6.79206-5.07874,10.76937-5.14,0,0,2.57-1.89686.61191-5.813A7.98817,7.98817,0,0,1,726.41774,166.02693Z"/>
      <path class="bz" d="M703.04327,169.17822c3.88558,3.33482,7.28155-.34267,7.28155-.34267,4.00794-5.452,6.45549-5.9293,6.45549-5.9293,1.31561-.673.55071,3.702.55071,3.702,7.28155-.18357,12.94161-5.04812,12.94161-5.04812.67307-5.07875,3.93145-3.42664,3.93145-3.42664,3.80908-1.285,2.39822-7.64873,2.39822-7.64873-1.18138,4.06909-11.19425,7.6181-11.19425,7.6181a5.88751,5.88751,0,0,0-5.11166,3.70194c-2.63349,1.71334-1.19089-5.93536-1.19089-5.93536C705.64381,160.79524,703.04327,169.17822,703.04327,169.17822Z"/>
      <path class="bz" d="M702.43141,148.78678a8.9495,8.9495,0,0,0,3.14366,8.74248s-2.50876,1.33086-4.85694-3.74026c0,0-2.32519,11.626,2.32519,10.76936a14.76977,14.76977,0,0,1,5.17051-4.18381s3.55666-1.95042,1.76684-5.53c0,0-3.32718,3.18952-5.80536-1.44561,0,0-2.45525-3.21244.25242-4.65806,0,0,2.87975.53923,2.84532,4.37124,0,0,2.547.42448,1.95041-3.43044,0,0-.413-1.74392-2.96-3.55666,0,0,2.93711-1.285,1.10142-2.70764C707.36478,143.41738,704.55719,140.972,702.43141,148.78678Z"/>
      <path class="bz" d="M720.55882,148.23611c-10.8535-.80313-7.96227,8.58183-7.96227,8.58183a42.5853,42.5853,0,0,1,9.36967-3.90084,5.302,5.302,0,0,0,0,2.18754c.82606,3.25834,2.92181.566,2.92181.566a2.64513,2.64513,0,0,0-2.06512-3.74788c-3.05947.5354-4.23738-.09178-4.23738-.09178C721.01774,149.87291,720.55882,148.23611,720.55882,148.23611Z"/>
      <path class="bz" d="M728.38343,144.863c-5.57592,2.70767-.25929,6.815-.25929,6.815,7.03754,2.68467,7.319-3.67138,7.319-3.67138,1.34619-3.27363-.7037-4.681-.7037-4.681-.61955,10.09628-6.28721,5.39234-6.28721,5.39234,2.59549,1.105,3.30425-.88548,3.30425-.88548A2.626,2.626,0,0,0,728.38343,144.863Z"/>
      <path class="bz" d="M709.03984,141.88765s1.421,1.51866.82606,4.834c0,0-.153,2.57,1.1932,3.76316,0,0,4.46686-4.7116,7.12861-4.16089,0,0,3.549.36715,3.88552,3.15126a2.47727,2.47727,0,0,0,2.264,1.49914s.85664-3.4572-.82606-5.38468c0,0-5.90478,1.04025-6.82263-.45893,0,0-.09943-3.48014-4.551-.10706,0,0-2.3864.8949-1.14728-4.93343,0,0,1.37677-2.06514,4.65808,0,0,0,7.52633,3.70994,10.46343-2.18354a2.83764,2.83764,0,0,0-.11471-2.31388s-4.04617,2.88354-6.14192.17592c0,0-1.132-2.3405,2.03455-2.47819,0,0,3.289,1.43794,2.99831-1.74393,0,0,.5507-6.3637-5.56828-7.70988,0,0-4.46686.24477-4.25266,2.96773,0,0,3.82437.36712,3.85494,2.417,0,0-11.16707,4.23734-10.5705,10.24926A2.88093,2.88093,0,0,0,709.03984,141.88765Z"/>
      <path class="bz" d="M725.4234,141.05393c-5.62179,3.0977-7.228,1.30793-7.228,1.30793-3.53373-3.18947-4.88751-.68069-4.88751-.68069.849.94846,6.79205,2.08046,6.79205,2.08046C725.87957,143.78342,725.4234,141.05393,725.4234,141.05393Z"/>
      <path class="bz" d="M698.48467,177.68357a4.65158,4.65158,0,0,0-1.62154,4.98694s-4.65043,8.96428.76485,13.064c0,0-2.14162-4.86459-.85663-6.42488,0,0,.48949,4.528,5.8742,11.19768,0,0-1.59091,1.86631-4.95636-2.01925,0,0-1.851-2.89119-3.10538-2.50875,0,0-.29829,3.19714.89491,3.95435,0,0-1.30792,5.80536,5.04815,6.2643,0,0,5.48413.39008,9.339-.91784,0,0-7.29684-4.8646-8.67361-16.15406C701.19229,189.126,698.51525,179.2133,698.48467,177.68357Z"/>
      <path class="bz" d="M692.27391,178.54022c.0612,5.41527-2.264,5.50706-2.264,5.50706-.55071-1.52975-2.84532-3.12068-2.84532-3.12068-1.62149.21416-.82606,2.75351-.82606,2.75351a6.62568,6.62568,0,0,1,1.71333,4.32854c1.16262,10.11094,5.3235,9.10263,5.3235,9.10263-.79548-21.23279,6.76148-23.80279,6.76148-23.80279l-3.48782-4.31387C693.83424,169.91245,692.27391,178.54022,692.27391,178.54022Z"/>
      <path class="bz" d="M687.16461,198.61039c-1.285-6.70026-4.13025-8.93368-4.13025-8.93368-1.74391,1.71334.26006,4.49921.26006,4.49921,1.14728,1.42442.55071,3.89907.55071,3.89907.55071,5.64475,6.19537,7.48042,6.19537,7.48042,2.20283-.04588.82606-6.33311.82606-6.33311-2.9371-2.983-4.45157-10.41756-4.45157-10.41756-.96371,3.04416,2.18754,9.4997,2.18754,9.4997C688.17423,199.55883,687.16461,198.61039,687.16461,198.61039Z"/>
      <path class="bz" d="M733.88286,236.45614s4.46686-13.03336-6.66964-13.58406C727.21317,222.87208,721.27781,231.19386,733.88286,236.45614Z"/>
      <path class="bz" d="M740.53286,224.78649s-2.19265,3.07427,2.46394,5.01827C742.9968,229.8048,744.64694,224.98994,740.53286,224.78649Z"/>
      <path class="bz" d="M724.30631,233.39668S726.161,229.515,721.537,229.351C721.537,229.35105,719.0725,231.82945,724.30631,233.39668Z"/>
      <path class="bz" d="M723.38885,227.64486s.94842-6.27193-2.57-6.51667c0,0,1.80512,3.4572.67307,6.70026C721.492,227.82845,722.2568,230.15363,723.38885,227.64486Z"/>
      <path class="bz" d="M694.079,216.61547s4.681.22943,2.84532-5.82833C696.92434,210.78713,691.05013,212.39337,694.079,216.61547Z"/>
      <path class="bz" d="M695.28124,219.04773a4.25612,4.25612,0,0,0,2.408,3.18186S699.32877,218.71121,695.28124,219.04773Z"/>
      <path class="bz" d="M695.80764,207.42172c.91784,3.28891,4.375,1.08611,4.375,1.08611C699.46367,206.61093,695.80764,207.42172,695.80764,207.42172Z"/>
      <path class="bz" d="M707.45657,200.89735a2.69216,2.69216,0,0,0,3.00595,1.35383,2.8263,2.8263,0,0,0-1.37676-3.25835Z"/>
      <path class="bz" d="M695.28124,229.20519l2.46916-2.264a6.81979,6.81979,0,0,1-3.79374-1.438,2.518,2.518,0,0,0-2.8148-1.62151C690.28528,226.17633,695.28124,229.20519,695.28124,229.20519Z"/>
      <path class="bz" d="M675.99747,239.27088c15.38917-3.30422,15.45037-8.96422,15.45037-8.96422-1.4174-6.18909-6.88383-4.92577-6.88383-4.92577C676.334,228.53214,675.99747,239.27088,675.99747,239.27088Z"/>
      <path class="bz" d="M667.46152,231.48449l-4.35974,3.02892c.64249,3.396,5.08939,7.98522,5.08939,7.98522l4.961-1.46855c.872-5.69061-2.983-7.34273-2.983-7.34273A2.99459,2.99459,0,0,1,667.46152,231.48449Z"/>
      <path class="bz" d="M674.25357,233.54967a3.34875,3.34875,0,0,0,.73427-4.05889l-5.64471-.28559C668.51706,234.13094,674.25357,233.54967,674.25357,233.54967Z"/>
      <path class="bz" d="M730.86871,142.8667s3.68722-3.702-.87138-6.79208c0,0,.39772.94843-.30593,3.36545C729.69135,139.44007,728.37469,142.1324,730.86871,142.8667Z"/>
      <path class="bz" d="M732.62845,135.32543c-1.98868-4.31389-3.28444-1.86631-3.28444-1.86631C731.53611,136.70218,732.62845,135.32543,732.62845,135.32543Z"/>
      <path class="bz" d="M726.2956,128.08936s2.4779-.13766,2.019-5.553c0,0-1.99924-4.81694-7.61811-.50484A11.368,11.368,0,0,1,726.2956,128.08936Z"/>
      <path class="bz" d="M734.86186,164.06888s8.84188-4.58923,4.55864-7.43452C739.4205,156.63436,733.66866,161.49888,734.86186,164.06888Z"/>
      <path class="bz" d="M745.08051,145.84968c2.07282-.39008,5.70593.82606,5.70593.82606-.04587-2.29461-5.70593-1.90451-5.70593-1.90451s-5.66-.39014-5.70593,1.90451C739.37458,146.67574,743.00774,145.45958,745.08051,145.84968Z"/>
      <path class="bx" d="M721.005,195.8645a5.84251,5.84251,0,1,0,6.47337,6.481,4.69409,4.69409,0,1,1-6.47337-6.481Z"/>
      <path class="bz" d="M694.90508,139.04235c5.3235,4.58923,8.13819,0,8.13819,0,4.09972-5.813,0-8.81131,0-8.81131a63.18109,63.18109,0,0,0-13.70647,2.2028C690.65242,136.35,694.90508,139.04235,694.90508,139.04235Z"/>
      <path class="bz" d="M696.67962,143.53975a3.26207,3.26207,0,0,0,2.47818-.4847s-8.29118-3.52321-11.07529-8.63255a3.0931,3.0931,0,0,0-.24478,1.86631S691.35606,141.85706,696.67962,143.53975Z"/>
      <path class="bz" d="M681.53116,150.66822a3.18294,3.18294,0,0,0-.27629,2.00529s3.97165,5.98313,9.98086,7.79117a3.84155,3.84155,0,0,0,2.79742-.52079S684.67389,156.15818,681.53116,150.66822Z"/>
      <path class="bz" d="M669.01311,165.059a3.363,3.363,0,0,0-.31583,2.19744s4.53978,6.55625,11.40877,8.53755c0,0,2.09229.37154,3.19761-.57072C683.30366,175.22329,672.60552,171.07492,669.01311,165.059Z"/>
      <path class="bz" d="M675.07737,191.325s-10.69814-4.14837-14.29055-10.16428a3.36293,3.36293,0,0,0-.31583,2.19741s4.53979,6.55627,11.40877,8.5376C671.87976,191.89577,673.97206,192.26728,675.07737,191.325Z"/>
      <path class="bz" d="M696.496,156.81791a18.599,18.599,0,0,0,2.66175-10.14217s-8.16882.70879-15.45037-11.01922l-4.58922,6.02468S683.46259,159.7244,696.496,156.81791Z"/>
      <path class="bz" d="M690.50778,174.09036s4.53957-4.59824,4.6374-10.79388c0,0-11.43121-.17974-20.48273-13.87351l-6.9401,6.05982S672.10568,175.74786,690.50778,174.09036Z"/>
      <path class="bz" d="M680.11,188.17436s4.409-4.28372,4.48352-10.07583c0,0-11.142-.20648-20.01-13.03952l-6.74377,5.64209S662.18014,189.66208,680.11,188.17436Z"/>
      <path class="bz" d="M676.54818,200.96619c2.57-1.34618,1.22378-5.10169,1.22378-5.10169-5.01758-.45127-14.13482-4.99458-14.13482-4.99458l.61192,3.67138C672.26494,202.19,676.54818,200.96619,676.54818,200.96619Z"/>
      <path class="bz" d="M652.32472,204.10983c-.51249-3.47506,2.73566-5.298,2.73566-5.298a6.93168,6.93168,0,0,0,1.79236-2.48584,6.96589,6.96589,0,0,0,1.79235,2.48584s3.24815,1.82294,2.73572,5.298a2.64041,2.64041,0,0,1,2.50875-.91021,2.16054,2.16054,0,0,0-.22943,1.25439,3.97547,3.97547,0,0,1-.566,2.61842,3.95171,3.95171,0,0,1,2.84531-.50992s.798.17084.6833-.515a2.90321,2.90321,0,0,1-.73939,2.90651c.07138-.04336,2.76371-1.647,4.90027,3.02123a4.83508,4.83508,0,0,0,2.67962,1.72606,4.845,4.845,0,0,0-2.67962,1.72859c-2.13656,4.66572-4.82889,3.06458-4.90027,3.02126a2.89883,2.89883,0,0,1,.73939,2.90393c.11472-.68327-.6833-.51246-.6833-.51246a3.96509,3.96509,0,0,1-2.84531-.50992,3.97408,3.97408,0,0,1,.566,2.61842,2.149,2.149,0,0,0,.22943,1.25187,2.6404,2.6404,0,0,1-2.50875-.9102c.51243,3.47507-2.73572,5.298-2.73572,5.298a6.15486,6.15486,0,0,0-.53542.52519,24.7549,24.7549,0,0,0,3.16654,3.804,6.916,6.916,0,0,0,1.90707-5.81815s.87451,1.43034,3.50057,1.27224a3.01483,3.01483,0,0,1-.31869-1.75152,5.54546,5.54546,0,0,0-.79548-3.65611,5.53139,5.53139,0,0,0,3.97478.71645s1.11417-.23968.95353.71386a4.044,4.044,0,0,0-1.03-4.05381c.0969.0612,3.855,2.29716,6.83539-4.21444,0,0,.69347-1.24671,3.30424-2.25122.10707-.04339.21926-.08416.334-.125v-.09944c-.0561-.02039-.11472-.04078-.16828-.0612-2.74842-1.01983-3.46994-2.315-3.46994-2.315-2.98044-6.51411-6.73849-4.27562-6.83539-4.217a4.01215,4.01215,0,0,0,1.08613-3.86005c-.03316-.12493-.0561-.19377-.0561-.19377a1.17942,1.17942,0,0,1,.01535.15555c.01787.77-.96883.5609-.96883.5609a5.53556,5.53556,0,0,0-3.97478.71388,5.5434,5.5434,0,0,0,.79549-3.6561,2.67749,2.67749,0,0,1,.13517-1.31045,2.87674,2.87674,0,0,1,.18357-.43855,6.57464,6.57464,0,0,0-.668-.00761,3.42248,3.42248,0,0,0-2.83256,1.27985,6.71528,6.71528,0,0,0-1.2901-5.07109,8.93129,8.93129,0,0,0-2.5164-2.31755l-.01017-.00761a9.71474,9.71474,0,0,1-2.48071-3.419h-.06627a9.67988,9.67988,0,0,1-2.48071,3.419s-3.51333,1.97081-3.86518,5.75432c.03316,1.44309.09943,2.97539.21162,4.56886A2.29818,2.29818,0,0,1,652.32472,204.10983Z"/>
      <path class="bz" d="M656.34525,217.8332v.00171l.02706-.0009.02706.0009v-.00171a4.21562,4.21562,0,0,0,4.13327-4.11828h.002l-.001-.03265.00116-.03694h-.00231a4.21561,4.21561,0,0,0-4.13327-4.11825v-.00171l-.02706.00083-.02706-.00083v.00171a4.21558,4.21558,0,0,0-4.13327,4.11825h-.002l.001.03265-.00116.03694h.00231A4.21562,4.21562,0,0,0,656.34525,217.8332Zm.027-7.70059a3.54753,3.54753,0,1,1-3.555,3.54543,3.60506,3.60506,0,0,1,3.55491-3.54542Z"/>
      <path class="bz" d="M656.34448,216.36568v.00173l.02783-.00091.02783.00091v-.00173a2.73937,2.73937,0,0,0,2.66521-2.64972h.00209l-.001-.03359.00115-.03807h-.00236A2.73936,2.73936,0,0,0,656.4,210.99458v-.00175l-.02782.00091-.02783-.00091v.00173a2.73932,2.73932,0,0,0-2.66522,2.64972H653.677l.001.03362-.00116.038h.00237A2.73934,2.73934,0,0,0,656.34448,216.36568Z"/>
      <path class="bz" d="M657.74968,225.24321a4.29621,4.29621,0,0,0,2.13464-4.11463,2.05984,2.05984,0,0,0,1.94952.71231,1.68843,1.68843,0,0,1-.1757-.97476,3.09732,3.09732,0,0,0-.43819-2.0409,3.08621,3.08621,0,0,0,2.21432.4054s.61159-.12892.53427.3866a2.25065,2.25065,0,0,0-.57172-2.24478c.10779.06328,2.16516,1.23485,3.81233-2.34319a3.75211,3.75211,0,0,1,2.05264-1.32623v-.04453a3.752,3.752,0,0,1-2.05264-1.3262c-1.64728-3.58041-3.70691-2.40647-3.81233-2.3432a2.25416,2.25416,0,0,0,.57172-2.24714c.07732.51548-.53427.389-.53427.389a3.07777,3.07777,0,0,0-2.21432.403,3.09138,3.09138,0,0,0,.43819-2.03857,1.68834,1.68834,0,0,1,.1757-.97474,2.054,2.054,0,0,0-1.94952.71231,4.29792,4.29792,0,0,0-2.13464-4.117,5.43289,5.43289,0,0,1-1.3309-1.77378h-.09371a5.45275,5.45275,0,0,1-1.32859,1.77378,4.29806,4.29806,0,0,0-2.137,4.117,2.04752,2.04752,0,0,0-1.94716-.71231,1.69634,1.69634,0,0,1,.17339.97474,3.091,3.091,0,0,0,.43819,2.03857,3.13721,3.13721,0,0,0-.4124-.21088c.14293,1.15754.314,2.33145.52019,3.50777a5.101,5.101,0,1,1,1.23483,5.51583,37.33884,37.33884,0,0,0,3.81469,9.17825A5.352,5.352,0,0,1,657.74968,225.24321Z"/>
      <path class="bz" d="M745.08051,139.2412s-7.794-.13767-7.03677,2.983a2.07787,2.07787,0,0,0,2.82238,1.78981s3.05947-.96375,4.21445-.52778c1.155-.436,4.21444.52778,4.21444.52778a2.07781,2.07781,0,0,0,2.82239-1.78981C752.87455,139.10353,745.08051,139.2412,745.08051,139.2412Z"/>
      <path class="bz" d="M756.61478,180.86541c2.47818-2.57,0-2.8912,0-2.8912-5.00228-.13769-4.86458-3.07479-4.86458-3.07479-1.10141-3.67135-2.40944-1.37676-2.40944-1.37676-1.39981-.18359-4.26019-6.19546-4.26019-6.19546s-2.86039,6.01187-4.2602,6.19546c0,0-1.308-2.29461-2.40944,1.37676,0,0,.13765,2.9371-4.86458,3.07479,0,0-2.47818.32125,0,2.8912,0,0,3.809,3.67138,6.33313,2.983,0,0,4.43623-1.3309,5.20109-3.62551.76485,2.29461,5.20114,3.62551,5.20114,3.62551C752.80575,184.5368,756.61478,180.86541,756.61478,180.86541Z"/>
      <path class="bz" d="M748.72131,186.37248c-.64249,2.20283-1.6062,1.65211-1.6062,1.65211-.73427-4.95634-2.03454-5.094-2.03454-5.094s-1.30028.13769-2.03455,5.094c0,0-.96371.55072-1.6062-1.65211,0,0-.68836-3.41125-2.06513,1.7133,0,0-1.1167,5.30821,5.70593,4.987,6.82263.32124,5.70593-4.987,5.70593-4.987C749.40973,182.96119,748.72131,186.37248,748.72131,186.37248Z"/>
      <path class="bz" d="M782.17673,186.00536s-5.507,3.71725-10.41756,1.33086c0,0-7.80169-2.75351-13.76768,5.3235,0,0-3.07481,6.70022-7.84754,5.23171,0,0,3.94673,0,3.396-3.62551,0,0-4.22208-2.57-7.57219,2.61586,0,0-.413,7.251,6.24134,5.04816,0,0,5.553.413,8.49-6.28721,0,0,6.47078-5.41527,12.39091-6.379,0,0-1.23912,6.01187,5.3235.32124,0,0,1.46855.96726.55071,6.22015C778.96428,195.8051,782.17673,193.30226,782.17673,186.00536Z"/>
      <path class="bz" d="M785.894,173.92041a14.52783,14.52783,0,0,1-9.72916,7.64873s1.07084-4.46685-5.26229-2.69233c0,0-7.28155,1.86627-7.37334,1.92746,0,0-.52013-1.95808-2.417-.48953a20.5181,20.5181,0,0,0-4.74217,6.94505s-1.31556.97907-1.71333-1.65211a5.09009,5.09009,0,0,0,0,7.67936s7.77111-10.01614,11.16714-9.35255c0,0,12.48269,3.93723,15.38916.66359,0,0,1.6827-2.78414,2.9371-1.40738,0,0-1.9581,12.05435.41306,11.67191a12.31566,12.31566,0,0,0,2.29461-7.43454s-1.42268,1.89559-2.61588.58067c0,0,3.03862-1.22312,1.31275-9.39195A6.47533,6.47533,0,0,0,785.894,173.92041Z"/>
      <path class="bz" d="M775.9201,166.39408c-1.59091,7.22036-3.61017,4.71163-3.61017,4.71163-2.69233-3.18189-8.56654-5.07878-8.56654-5.07878a7.98809,7.98809,0,0,1-5.507-4.22208c-1.95805,3.91613.61191,5.813.61191,5.813,3.97731.06122,10.76937,5.14,10.76937,5.14,6.119,5.507,9.362,2.01925,9.362,2.01925C782.039,168.78046,775.9201,166.39408,775.9201,166.39408Z"/>
      <path class="bz" d="M755.957,158.13347s3.25837-1.6521,3.93144,3.42665c0,0,5.66006,4.86459,12.94161,5.04812,0,0-.76485-4.375.55071-3.702,0,0,2.44761.47729,6.45549,5.92929,0,0,3.396,3.67749,7.28155.34267,0,0-2.60054-8.383-16.06228-13.30874,0,0,1.44259,7.64873-1.19089,5.93536a5.88751,5.88751,0,0,0-5.11167-3.70194s-10.01292-3.549-11.19424-7.6181C753.55873,150.48477,752.14786,156.84848,755.957,158.13347Z"/>
      <path class="bz" d="M783.89765,146.125c-2.547,1.81274-2.96,3.55666-2.96,3.55666-.59658,3.85492,1.9504,3.43044,1.9504,3.43044-.03442-3.832,2.84532-4.37124,2.84532-4.37124,2.70762,1.44562.25242,4.65806.25242,4.65806-2.47818,4.63513-5.80535,1.44561-5.80535,1.44561-1.78983,3.57958,1.76689,5.53,1.76689,5.53a14.76933,14.76933,0,0,1,5.17051,4.18381c4.65043.85668,2.32519-10.76936,2.32519-10.76936-2.34812,5.07112-4.85694,3.74026-4.85694,3.74026a8.9495,8.9495,0,0,0,3.14366-8.74248c-2.12583-7.81477-4.93343-5.3694-4.93343-5.3694C780.9606,144.84007,783.89765,146.125,783.89765,146.125Z"/>
      <path class="bz" d="M767.33822,151.92273a2.64518,2.64518,0,0,0-2.06512,3.74788s2.09575,2.69233,2.92181-.566a5.302,5.302,0,0,0,0-2.18754,42.5849,42.5849,0,0,1,9.36967,3.90084s2.89118-9.385-7.96227-8.58185c0,0-.45892,1.63684,1.9734,3.59489C771.57565,151.831,770.39774,152.45814,767.33822,151.92273Z"/>
      <path class="bz" d="M755.42158,143.32561s-2.04983,1.40738-.7037,4.681c0,0,.28152,6.35605,7.31906,3.67138,0,0,5.31663-4.10734-.2593-6.815a2.626,2.626,0,0,0-3.37309,2.96951s.70876,1.99044,3.30424.88548C761.70879,148.718,756.04114,153.42189,755.42158,143.32561Z"/>
      <path class="bz" d="M765.2731,131.54656c-.29064,3.18185,2.99831,1.74393,2.99831,1.74393,3.16654.13769,2.03455,2.47819,2.03455,2.47819-2.09576,2.70764-6.14192-.17592-6.14192-.17592a2.83764,2.83764,0,0,0-.11472,2.31388c2.93711,5.89348,10.46344,2.18354,10.46344,2.18354,3.28131-2.06514,4.65807,0,4.65807,0,1.23907,5.82833-1.14728,4.93343-1.14728,4.93343-4.45157-3.37308-4.55094.10706-4.55094.10706-.91785,1.49918-6.82263.45893-6.82263.45893-1.6827,1.92749-.82606,5.38468-.82606,5.38468a2.4773,2.4773,0,0,0,2.264-1.49914c.33651-2.78414,3.88553-3.15126,3.88553-3.15126,2.66175-.55072,7.12856,4.16089,7.12856,4.16089,1.34619-1.19318,1.19319-3.76316,1.19319-3.76316-.59492-3.3153.82607-4.834.82607-4.834a2.881,2.881,0,0,0,.68835-2.417c.59663-6.0119-10.5705-10.24925-10.5705-10.24925.03063-2.04981,3.85494-2.417,3.85494-2.417.21415-2.72295-4.25266-2.96773-4.25266-2.96773C764.72239,125.18288,765.2731,131.54656,765.2731,131.54656Z"/>
      <path class="bz" d="M776.85323,141.6812s-1.35383-2.50879-4.88751.68068c0,0-1.6062,1.7898-7.228-1.30792,0,0-.45618,2.72948,5.3235,2.70767C770.06118,143.7616,776.00424,142.62963,776.85323,141.6812Z"/>
      <path class="bz" d="M780.29512,205.28007c3.855,1.30793,9.339.91785,9.339.91785,6.35606-.45894,5.04814-6.26431,5.04814-6.26431,1.1932-.75721.89486-3.95435.89486-3.95435-1.25435-.38242-3.10538,2.50876-3.10538,2.50876-3.36545,3.88554-4.95637,2.01924-4.95637,2.01924,5.38466-6.66963,5.87421-11.19768,5.87421-11.19768,1.285,1.56034-.85669,6.42489-.85669,6.42489,5.41528-4.09968.76485-13.064.76485-13.064a4.65157,4.65157,0,0,0-1.62154-4.98694c-.03063,1.52973-2.70762,11.44245-2.70762,11.44245C787.592,200.41551,780.29512,205.28007,780.29512,205.28007Z"/>
      <path class="bz" d="M802.99647,180.9266s-2.29461,1.59093-2.84532,3.12068c0,0-2.32519-.09179-2.264-5.50706,0,0-1.56034-8.62775-4.375-9.54556l-3.48781,4.31385s7.55691,2.57,6.76148,23.80278c0,0,4.16088,1.00831,5.3235-9.10262a6.62566,6.62566,0,0,1,1.71333-4.32854S804.618,181.14076,802.99647,180.9266Z"/>
      <path class="bz" d="M807.12677,189.67671s-2.84532,2.23342-4.13024,8.93368c0,0-1.00963.94844-1.438-.30593,0,0,3.15125-6.45551,2.18754-9.49969,0,0-1.51447,7.43452-4.45158,10.41755,0,0-1.37676,6.28724.82607,6.33312,0,0,5.64471-1.83568,6.19542-7.48042,0,0-.59657-2.47465.55071-3.89907C806.86676,194.17592,808.87068,191.39,807.12677,189.67671Z"/>
      <path class="bz" d="M788.40279,224.06529s6.73085-7.31217.55071-15.14447c0,0-4.528-4.28325-11.32007-.30593a142.18717,142.18717,0,0,1-19.64183,6.87934s-3.1684-.25558-7.13714,2.81921a4.06708,4.06708,0,0,1-3.18859,0s6.83792,3.21245,17.25549-1.92749c0,0,13.0334-8.90306,20.23845-6.33311,0,0,3.02889,1.83572,2.34048,3.71726,0,0-2.61589-4.95634-10.5093-.73425,0,0-20.95744,9.63734-31.91042,9.13253-10.95294.50481-31.91038-9.13253-31.91038-9.13253-7.89346-4.22209-10.50935.73425-10.50935.73425-.68835-1.88156,2.34053-3.71726,2.34053-3.71726,7.20506-2.57,20.23846,6.33311,20.23846,6.33311,10.41756,5.13994,17.25548,1.92749,17.25548,1.92749a4.06708,4.06708,0,0,1-3.18859,0c-3.96873-3.07479-7.13714-2.81921-7.13714-2.81921a142.19058,142.19058,0,0,1-19.64188-6.87934c-6.79205-3.97732-11.32007.30593-11.32007.30593-6.18013,7.8323.55071,15.14447.55071,15.14447l2.8759-2.57c-2.99832-4.40567-1.74391-6.39431-1.74391-6.39431,2.81469-4.528,11.8402.36715,11.8402.36715,17.439,9.60675,30.35,7.80164,30.35,7.80164s12.911,1.80511,30.35-7.80164c0,0,9.02551-4.89522,11.8402-.36715,0,0,1.25435,1.98864-1.7439,6.39431Z"/>
      <path class="bz" d="M756.27827,236.45614c12.60506-5.26228,6.66964-13.58406,6.66964-13.58406C751.81141,223.4228,756.27827,236.45614,756.27827,236.45614Z"/>
      <path class="bz" d="M747.16428,229.8048c4.65659-1.944,2.46394-5.01827,2.46394-5.01827C745.51414,224.98994,747.16428,229.8048,747.16428,229.8048Z"/>
      <path class="bz" d="M765.85477,233.39668c5.2338-1.56723,2.76932-4.04567,2.76932-4.04567C764.00005,229.515,765.85477,233.39668,765.85477,233.39668Z"/>
      <path class="bz" d="M756.92071,206.718c-2.29461,1.285-5.44586-.79545-5.44586-.79545-3.4266-3.18188-6.39434-2.75351-6.39434-2.75351s-2.96768-.42835-6.39428,2.75351c0,0-3.15131,2.08045-5.44592.79545,0,0-3.549,1.43792-.55071,4.95634a19.34226,19.34226,0,0,1,9.17845,0,11.47284,11.47284,0,0,0,6.42492,0,19.34226,19.34226,0,0,1,9.17845,0C760.46973,208.156,756.92071,206.718,756.92071,206.718Z"/>
      <path class="bz" d="M766.77223,227.64486c1.132,2.50875,1.8969.18359,1.8969.18359-1.132-3.24306.67306-6.70026.67306-6.70026C765.82381,221.37293,766.77223,227.64486,766.77223,227.64486Z"/>
      <path class="bz" d="M751.61206,212.91959a17.24217,17.24217,0,0,1-13.0631,0s-4.23182-1.65211-6.54007.64249c0,0,5.66809-.34419,8.3354,1.49153,0,0,3.11187,1.42264,4.73622,1.19318,1.62435.22946,4.73622-1.19318,4.73622-1.19318,2.66736-1.83571,8.3354-1.49153,8.3354-1.49153C755.84388,211.26747,751.61206,212.91959,751.61206,212.91959Z"/>
      <path class="bz" d="M793.23674,210.78713c-1.83569,6.05777,2.84532,5.82833,2.84532,5.82833C799.111,212.39337,793.23674,210.78713,793.23674,210.78713Z"/>
      <path class="bz" d="M814.1636,239.27088s-.33656-10.73874-8.56653-13.89007c0,0-5.46643-1.26333-6.88384,4.92577C798.71323,230.30662,798.77444,235.96666,814.1636,239.27088Z"/>
      <path class="bz" d="M794.87984,219.04773c-4.04754-.33652-2.40795,3.18186-2.40795,3.18186A4.25612,4.25612,0,0,0,794.87984,219.04773Z"/>
      <path class="bz" d="M794.35344,207.42172s-3.65609-.81079-4.375,1.08611C789.97842,208.50782,793.4356,210.71063,794.35344,207.42172Z"/>
      <path class="bz" d="M782.70451,200.89735l-1.62919-1.90452a2.82631,2.82631,0,0,0-1.37677,3.25835A2.69215,2.69215,0,0,0,782.70451,200.89735Z"/>
      <path class="bz" d="M799.01916,223.88173a2.518,2.518,0,0,0-2.81474,1.62151,6.82038,6.82038,0,0,1-3.79374,1.438l2.46916,2.264S799.8758,226.17633,799.01916,223.88173Z"/>
      <path class="bz" d="M817.00892,241.03009l4.961,1.46855s4.44691-4.58922,5.0894-7.98522l-4.35974-3.02892a2.9946,2.9946,0,0,1-2.70761,2.20286S816.13694,235.33947,817.00892,241.03009Z"/>
      <path class="bz" d="M815.17323,229.49078a3.34877,3.34877,0,0,0,.73428,4.05889s5.7365.58131,4.91044-4.34448Z"/>
      <path class="bz" d="M759.29237,142.8667c2.494-.73433,1.17736-3.42663,1.17736-3.42663-.7037-2.417-.30593-3.36545-.30593-3.36545C755.60515,139.16473,759.29237,142.8667,759.29237,142.8667Z"/>
      <path class="bz" d="M757.53263,135.32543s1.09234,1.37675,3.28444-1.86631C760.817,133.45913,759.52125,131.01155,757.53263,135.32543Z"/>
      <path class="bz" d="M763.86548,128.08936a11.3679,11.3679,0,0,1,5.59907-6.05777c-5.61887-4.3121-7.61811.50484-7.61811.50484C761.38757,127.95173,763.86548,128.08936,763.86548,128.08936Z"/>
      <path class="bz" d="M750.74063,156.63436c-4.2833,2.84529,4.55865,7.43452,4.55865,7.43452C756.49242,161.49888,750.74063,156.63436,750.74063,156.63436Z"/>
      <path class="bx" d="M766.64734,204.52538a4.68826,4.68826,0,0,1-3.96461-2.17987,5.84288,5.84288,0,1,0,6.47336-6.481,4.69382,4.69382,0,0,1-2.50875,8.66088Z"/>
      <path class="bz" d="M795.256,139.04235s4.25266-2.69235,5.56827-6.60851a63.181,63.181,0,0,0-13.70646-2.2028s-4.09967,2.99829,0,8.81131C787.11781,139.04235,789.9325,143.63157,795.256,139.04235Z"/>
      <path class="bz" d="M791.00333,143.05505a3.26214,3.26214,0,0,0,2.47819.4847c5.3235-1.68269,8.84188-7.25094,8.84188-7.25094a3.0928,3.0928,0,0,0-.24477-1.86631C799.29451,139.53184,791.00333,143.05505,791.00333,143.05505Z"/>
      <path class="bz" d="M808.9062,152.67351a3.18287,3.18287,0,0,0-.27628-2.00529c-3.14273,5.49-12.502,9.27566-12.502,9.27566a3.8415,3.8415,0,0,0,2.79742.52079C804.93461,158.65664,808.9062,152.67351,808.9062,152.67351Z"/>
      <path class="bz" d="M821.46374,167.25646a3.36258,3.36258,0,0,0-.31583-2.19744c-3.59235,6.01592-14.2905,10.16427-14.2905,10.16427,1.10532.94228,3.19761.57072,3.19761.57072C816.924,173.81272,821.46374,167.25646,821.46374,167.25646Z"/>
      <path class="bz" d="M829.69,183.35815a3.36255,3.36255,0,0,0-.31583-2.19741c-3.59235,6.01591-14.29055,10.16428-14.29055,10.16428,1.10537.94226,3.19761.57073,3.19761.57073C825.15019,189.91443,829.69,183.35815,829.69,183.35815Z"/>
      <path class="bz" d="M791.00333,146.67574a18.59915,18.59915,0,0,0,2.66175,10.14217c13.03335,2.90649,17.3779-15.13671,17.3779-15.13671l-4.58922-6.02466C799.17215,147.38453,791.00333,146.67574,791.00333,146.67574Z"/>
      <path class="bz" d="M795.01589,163.29648c.09789,6.19564,4.6374,10.79388,4.6374,10.79388,18.40205,1.6575,22.78544-18.60757,22.78544-18.60757l-6.9401-6.05982C806.44711,163.11674,795.01589,163.29648,795.01589,163.29648Z"/>
      <path class="bz" d="M805.56759,178.0985c.07457,5.79211,4.48353,10.07584,4.48353,10.07584,17.92987,1.48771,22.27025-17.47325,22.27025-17.47325L825.5776,165.059C816.70954,177.89205,805.56759,178.0985,805.56759,178.0985Z"/>
      <path class="bz" d="M813.6129,200.96619s4.28329,1.2238,12.29912-6.4249l.61191-3.67138s-9.11724,4.5433-14.13481,4.99458C812.38907,195.8645,811.043,199.62,813.6129,200.96619Z"/>
      <path class="bz" d="M775.553,237.98589c-11.56484,9.362-30.47239,7.8323-30.47239,7.8323s-18.90761,1.52973-30.4724-7.8323c0,0-3.243,2.5088,1.95805,5.14,0,0,8.56653,5.01752,28.51435,5.20108,19.94781-.18356,28.51434-5.20109,28.51434-5.20109C778.796,240.49469,775.553,237.98589,775.553,237.98589Z"/>
      <path class="bz" d="M835.82216,192.90705a9.67972,9.67972,0,0,1-2.48071-3.419h-.06632a9.71485,9.71485,0,0,1-2.48072,3.419l-.01017.00762a8.93158,8.93158,0,0,0-2.51646,2.31757,6.71532,6.71532,0,0,0-1.29009,5.07109,3.42249,3.42249,0,0,0-2.83256-1.27985,6.57175,6.57175,0,0,0-.668.00762,2.87722,2.87722,0,0,1,.18357.43854,2.67773,2.67773,0,0,1,.13517,1.31045,5.54339,5.54339,0,0,0,.79548,3.6561,5.53555,5.53555,0,0,0-3.97478-.71388s-.98669.20908-.96882-.5609a1.18966,1.18966,0,0,1,.01534-.15555s-.02293.06885-.05609.19377a4.01212,4.01212,0,0,0,1.08613,3.86c-.0969-.05862-3.855-2.29713-6.83539,4.217,0,0-.72152,1.29517-3.46994,2.315-.05356.02042-.11219.04079-.16828.0612v.09944c.11472.04079.2269.08157.334.125,2.61077,1.00451,3.30424,2.25122,3.30424,2.25122,2.98044,6.51165,6.73849,4.27564,6.83539,4.21444a4.044,4.044,0,0,0-1.03,4.05381c-.16063-.95352.95354-.71386.95354-.71386a5.53143,5.53143,0,0,0,3.97478-.71644,5.54536,5.54536,0,0,0-.79548,3.6561,3.01491,3.01491,0,0,1-.31869,1.75152c2.62606.15811,3.50057-1.27223,3.50057-1.27223a6.916,6.916,0,0,0,1.90707,5.81814,24.75833,24.75833,0,0,0,3.16654-3.804,6.15912,6.15912,0,0,0-.53542-.52519s-3.24815-1.823-2.73572-5.298a2.64041,2.64041,0,0,1-2.50876.9102,2.149,2.149,0,0,0,.22944-1.25187,3.974,3.974,0,0,1,.566-2.61842,3.96512,3.96512,0,0,1-2.84532.50992s-.798-.17081-.6833.51246a2.89887,2.89887,0,0,1,.73939-2.90393c-.07138.04332-2.76376,1.64445-4.90026-3.02126a4.84475,4.84475,0,0,0-2.67963-1.72859,4.83544,4.83544,0,0,0,2.67963-1.72606c2.13656-4.66824,4.82888-3.06459,4.90026-3.02123a2.90325,2.90325,0,0,1-.73939-2.90651c-.11471.68584.6833.515.6833.515a3.95173,3.95173,0,0,1,2.84532.50992,3.97541,3.97541,0,0,1-.566-2.61842,2.15969,2.15969,0,0,0-.22944-1.25439,2.64042,2.64042,0,0,1,2.50876.91021c-.51243-3.47506,2.73572-5.298,2.73572-5.298a6.966,6.966,0,0,0,1.79235-2.48584,6.931,6.931,0,0,0,1.79236,2.48584s3.24814,1.82295,2.73566,5.298a2.29812,2.29812,0,0,1,1.63936-.87959c.11219-1.59347.17845-3.12578.21162-4.56887C839.33549,194.87786,835.82216,192.90705,835.82216,192.90705Z"/>
      <path class="bz" d="M837.95124,213.64534h-.002a4.21558,4.21558,0,0,0-4.13327-4.11824v-.00172l-.02705.00084-.02706-.00084v.00172a4.21558,4.21558,0,0,0-4.13327,4.11824h-.00231l.00115.03695-.001.03265h.002a4.2156,4.2156,0,0,0,4.13327,4.11827v.00172l.02706-.00091.02705.00091v-.00172a4.21561,4.21561,0,0,0,4.13328-4.11827h.0023l-.00115-.03694Zm-4.16247,3.58235a3.54754,3.54754,0,1,1,3.55512-3.54964A3.6051,3.6051,0,0,1,833.78877,217.22769Z"/>
      <path class="bz" d="M833.81676,210.99463v-.0018l-.02783.00091-.02783-.00091v.00173a2.73933,2.73933,0,0,0-2.66521,2.64972h-.00237l.00116.03807-.00105.03359h.00209a2.73937,2.73937,0,0,0,2.66522,2.64972v.00173l.02783-.0009.02782.0009v-.00173a2.73936,2.73936,0,0,0,2.66522-2.64972h.00236l-.00115-.038.001-.03361H836.482A2.73933,2.73933,0,0,0,833.81676,210.99463Z"/>
      <path class="bz" d="M837.3016,206.233a4.29805,4.29805,0,0,0-2.13695-4.117,5.4529,5.4529,0,0,1-1.32859-1.77379h-.09371a5.43314,5.43314,0,0,1-1.3309,1.77379,4.2979,4.2979,0,0,0-2.13464,4.117,2.054,2.054,0,0,0-1.94952-.71231,1.68832,1.68832,0,0,1,.1757.97473,3.09138,3.09138,0,0,0,.43819,2.03857,3.07782,3.07782,0,0,0-2.21432-.403s-.61153.12652-.53421-.389a2.25412,2.25412,0,0,0,.57172,2.24714c-.10543-.06327-2.16516-1.23721-3.81239,2.3432a3.75206,3.75206,0,0,1-2.05264,1.3262v.04456a3.75209,3.75209,0,0,1,2.05264,1.32622c1.64728,3.578,3.7046,2.40647,3.81239,2.34319a2.25067,2.25067,0,0,0-.57172,2.24479c-.07732-.51551.53421-.38661.53421-.38661a3.08631,3.08631,0,0,0,2.21432-.4054,3.097,3.097,0,0,0-.43824,2.04089,1.68835,1.68835,0,0,1-.17571.97476,2.05987,2.05987,0,0,0,1.94953-.7123,4.29618,4.29618,0,0,0,2.13463,4.11462,5.35215,5.35215,0,0,1,1.06848,1.28173,37.33968,37.33968,0,0,0,3.81469-9.17826,5.07146,5.07146,0,1,1,1.23488-5.51583c.20617-1.17631.37726-2.35022.52019-3.50777a3.13789,3.13789,0,0,0-.4124.21089,3.091,3.091,0,0,0,.43814-2.03858,1.6963,1.6963,0,0,1,.17339-.97473A2.04751,2.04751,0,0,0,837.3016,206.233Z"/>
      <g>
        <path class="bz" d="M716.245,228.58216c3.99259-7.10222-4.08439-8.66248-4.08439-8.66248-15.41979,19.45115-57.39583,27.30668-57.39583,27.30668C695.63936,247.65531,716.245,228.58216,716.245,228.58216Z"/>
        <path class="bz" d="M778.00057,219.9197s-8.077,1.56024-4.08439,8.66247c0,0,20.6056,19.07316,61.48027,18.64421C835.3964,247.22638,793.42031,239.37083,778.00057,219.9197Z"/>
      </g>
    </g>
  </g>
</svg>
